<?xml version="1.0" encoding="utf-8"?>
<!-- Generator: Adobe Illustrator 23.0.6, SVG Export Plug-In . SVG Version: 6.00 Build 0)  -->
<svg version="1.1" id="Layer_1" xmlns="http://www.w3.org/2000/svg" xmlns:xlink="http://www.w3.org/1999/xlink" x="0px" y="0px"
	 viewBox="0 0 612 612" style="enable-background:new 0 0 612 612;" xml:space="preserve">
<style type="text/css">
	.st0{fill:#CDCDCD;}
	.st1{fill:#2F2D2E;}
</style>
<g id="_x36_Pl94A_1_">
	<g>
		<path class="st0" d="M612.9,611.7c-203.9,0-407.8,0-611.7,0c0-203.9,0-407.8,0-611.7C205.1,0,409,0,612.9,0
			C612.9,203.9,612.9,407.8,612.9,611.7z"/>
	</g>
</g>
<path class="st1" d="M17.6,319V293h576.8V319H17.6z"/>
<g>
	<g>
		<path class="st1" d="M185.1,252.3l-31,110.7H128l-19.3-73.7L89.9,363H63.8l-31-110.7h27l18,72.1l18.3-72.1h25.9l18,70l17.9-70
			H185.1z"/>
		<path class="st1" d="M194.1,260.2c0-7.3,6-13.4,13.3-13.4c7.4,0,13.6,6.2,13.6,13.4c0,7.4-6.2,13.4-13.6,13.4
			C200.1,273.7,194.1,267.7,194.1,260.2z M194.7,282.5h25.9V363h-25.9V282.5z"/>
		<path class="st1" d="M236.6,252.3h25.9V363h-25.9V252.3z"/>
		<path class="st1" d="M278.3,252.3h25.9V363h-25.9V252.3z"/>
		<path class="st1" d="M319.6,260.2c0-7.3,6-13.4,13.3-13.4c7.4,0,13.6,6.2,13.6,13.4c0,7.4-6.2,13.4-13.6,13.4
			C325.6,273.7,319.6,267.7,319.6,260.2z M320.2,282.5h25.9V363h-25.9V282.5z"/>
		<path class="st1" d="M358.9,322.8c0-26.2,19.1-42.5,39.4-42.5c11.4,0,19,5.4,21.8,8.9v-6.6h25.9V363h-21.2l-3.5-7.9
			c-2.8,3.5-10.1,10.1-22.8,10.1C378.1,365.2,358.9,349.1,358.9,322.8z M420.1,322.8c0-11.4-7.7-19.1-17.4-19.1
			c-9.6,0-17.9,8.1-17.9,19.1c0,11.2,8.2,19,17.9,19C412.4,341.8,420.1,334.1,420.1,322.8z"/>
		<path class="st1" d="M461.9,282.5H483l3.5,8.2c3.5-4.3,11.9-10.4,23.4-10.4c12.6,0,17.7,6.2,20.2,10.4
			c3.6-4.3,11.5-10.4,23.4-10.4c15.8,0,25.6,9.2,25.6,30.4V363h-25.9v-46.3c0-7.7-3.2-12.2-9.8-12.2c-6.2,0-10,4-10,13.1V363h-25.9
			v-46.3c0-7.7-3.3-12.2-9.8-12.2c-6.5,0-10,3.8-10,13.1V363h-25.9V282.5z"/>
	</g>
</g>
</svg>
