<?xml version="1.0" encoding="utf-8"?>
<!-- Generator: Adobe Illustrator 25.0.1, SVG Export Plug-In . SVG Version: 6.00 Build 0)  -->
<svg version="1.1" id="Layer_1" xmlns="http://www.w3.org/2000/svg" xmlns:xlink="http://www.w3.org/1999/xlink" x="0px" y="0px"
	 viewBox="0 0 91.6 91.6" style="enable-background:new 0 0 91.6 91.6;" xml:space="preserve">
<style type="text/css">
	.st0{fill:#ECE94A;}
	.st1{fill:#F6AFCE;}
	.st2{fill:#F99F1E;}
	.st3{fill:none;stroke:#FFFFFF;stroke-miterlimit:10;}
</style>
<g>
	<g>
		<path class="st2" d="M90.7,51.5c-1.1-3.1-1.1-8.2,0-11.4l0.5-1.3c1.1-3.1-0.1-7.5-2.6-9.6l-1.1-0.9c-2.5-2.2-5-6.6-5.7-9.8
			L81.6,17c-0.6-3.2-3.8-6.4-7-7l-1.4-0.3c-3.2-0.6-7.7-3.2-9.8-5.7L62.4,3c-2.2-2.5-6.5-3.6-9.6-2.6l-1.3,0.5
			c-3.1,1.1-8.2,1.1-11.4,0l-1.3-0.5c-3.1-1.1-7.5,0.1-9.6,2.6L28.2,4c-2.2,2.5-6.6,5-9.8,5.7L17,10c-3.2,0.6-6.4,3.8-7,7l-0.3,1.4
			c-0.6,3.2-3.2,7.7-5.7,9.8L3,29.2c-2.5,2.2-3.6,6.5-2.6,9.6l0.5,1.3c1.1,3.1,1.1,8.2,0,11.4l-0.5,1.3c-1.1,3.1,0.1,7.5,2.6,9.6
			L4,63.4c2.5,2.2,5,6.6,5.7,9.8l0.3,1.4c0.6,3.2,3.8,6.4,7,7l1.4,0.3c3.2,0.6,7.7,3.2,9.8,5.7l0.9,1.1c2.2,2.5,6.5,3.6,9.6,2.6
			l1.3-0.5c3.1-1.1,8.2-1.1,11.4,0l1.3,0.5c3.1,1.1,7.5-0.1,9.6-2.6l0.9-1.1c2.2-2.5,6.6-5,9.8-5.7l1.4-0.3c3.2-0.6,6.4-3.8,7-7
			l0.3-1.4c0.6-3.2,3.2-7.7,5.7-9.8l1.1-0.9c2.5-2.2,3.6-6.5,2.6-9.6L90.7,51.5z"/>
	</g>
	<g>
		<circle class="st3" cx="45.8" cy="45.8" r="34.8"/>
	</g>
	<path d="M40,39.9c-1.1,0-1.6,0.8-1.2,1.8c0,0,2.7,6.1,7.1,6.1s7.1-6.1,7.1-6.1c0.4-1-0.1-1.8-1.2-1.8H40z"/>
	<ellipse cx="57.1" cy="28.6" rx="2.5" ry="4.2"/>
	<ellipse cx="34.5" cy="28.6" rx="2.5" ry="4.2"/>
</g>
</svg>
