<?xml version="1.0" encoding="utf-8"?>
<!-- Generator: Adobe Illustrator 25.0.0, SVG Export Plug-In . SVG Version: 6.00 Build 0)  -->
<svg version="1.1" xmlns="http://www.w3.org/2000/svg" xmlns:xlink="http://www.w3.org/1999/xlink" x="0px" y="0px"
	 viewBox="0 0 1070 612" style="enable-background:new 0 0 1070 612;" xml:space="preserve">
<style type="text/css">
	.st0{display:none;}
	.st1{display:inline;}
	.st2{fill:#CDCDCD;}
	.st3{fill:#2F2D2E;}
	.st4{fill:#E6E6E6;}
	.st5{fill:#FFFFFF;}
	.st6{fill:#DAA880;}
	.st7{fill:#FCC192;}
	.st8{fill:#0086B8;}
	.st9{fill:#00AEEF;}
	.st10{fill:#FFFCD5;}
	.st11{fill:#E8E6D1;}
	.st12{fill:#EC008C;}
	.st13{fill:#A20060;}
</style>
<g id="Layer_1" class="st0">
	<g id="_x36_Pl94A_1_">
		<g class="st1">
			<path class="st2" d="M583.9,611.7c-203.9,0-407.8,0-611.7,0c0-203.9,0-407.8,0-611.7C176.1,0,380,0,583.9,0
				C583.9,203.9,583.9,407.8,583.9,611.7z"/>
		</g>
	</g>
	<path class="st3" d="M-11.4,319v-26h576.8v26H-11.4z"/>
	<g>
		<g class="st1">
			<path class="st3" d="M156.1,252.3l-31,110.7H99l-19.3-73.7L60.9,363H34.8l-31-110.7h27l18,72.1l18.3-72.1H93l18,70l17.9-70
				L156.1,252.3L156.1,252.3z"/>
			<path class="st3" d="M165.1,260.2c0-7.3,6-13.4,13.3-13.4c7.4,0,13.6,6.2,13.6,13.4c0,7.4-6.2,13.4-13.6,13.4
				C171.1,273.7,165.1,267.7,165.1,260.2z M165.7,282.5h25.9V363h-25.9V282.5z"/>
			<path class="st3" d="M207.6,252.3h25.9V363h-25.9V252.3z"/>
			<path class="st3" d="M249.3,252.3h25.9V363h-25.9V252.3z"/>
			<path class="st3" d="M290.6,260.2c0-7.3,6-13.4,13.3-13.4c7.4,0,13.6,6.2,13.6,13.4c0,7.4-6.2,13.4-13.6,13.4
				C296.6,273.7,290.6,267.7,290.6,260.2z M291.2,282.5h25.9V363h-25.9V282.5z"/>
			<path class="st3" d="M329.9,322.8c0-26.2,19.1-42.5,39.4-42.5c11.4,0,19,5.4,21.8,8.9v-6.6H417V363h-21.2l-3.5-7.9
				c-2.8,3.5-10.1,10.1-22.8,10.1C349.1,365.2,329.9,349.1,329.9,322.8z M391.1,322.8c0-11.4-7.7-19.1-17.4-19.1
				c-9.6,0-17.9,8.1-17.9,19.1c0,11.2,8.2,19,17.9,19S391.1,334.1,391.1,322.8z"/>
			<path class="st3" d="M432.9,282.5H454l3.5,8.2c3.5-4.3,11.9-10.4,23.4-10.4c12.6,0,17.7,6.2,20.2,10.4
				c3.6-4.3,11.5-10.4,23.4-10.4c15.8,0,25.6,9.2,25.6,30.4V363h-25.9v-46.3c0-7.7-3.2-12.2-9.8-12.2c-6.2,0-10,4-10,13.1V363h-25.9
				v-46.3c0-7.7-3.3-12.2-9.8-12.2s-10,3.8-10,13.1V363h-25.9v-80.5H432.9z"/>
		</g>
	</g>
</g>
<g id="Layer_4">
	<g>
		<path d="M241.3,315.7c0.3,0,0.3,0,0.5,0C241.6,315.7,241.6,315.7,241.3,315.7L241.3,315.7z M302.2,383c0.3,0,0.8,0,1.1,0
			C303,383,302.7,383,302.2,383z M308.6,383c0.5,0,1.1,0,1.3,0C309.7,383,309.1,383,308.6,383z M307.3,383c0.5,0,1.1,0,1.6,0
			C308.1,383,307.8,383,307.3,383z M311.8,383.3c0,0-0.3,0-0.8,0C311.6,383.3,311.8,383.3,311.8,383.3z M311.8,383.3
			c0.5,0,1.3,0,1.9,0C313.2,383,312.6,383.3,311.8,383.3z M71.1,398.3c1.1,0,1.9-0.3,2.9-0.3C73,398,72.2,398,71.1,398.3z
			 M65.2,398.8c1.1,0,2.4-0.3,3.5-0.3C67.6,398.6,66.3,398.6,65.2,398.8z M57.2,399.1c1.9,0,4,0,5.9-0.3
			C61.2,399.1,59.3,399.1,57.2,399.1L57.2,399.1z M292,382.5c0.8,0,1.9,0,2.7,0C293.9,382.8,292.8,382.5,292,382.5z M321.2,381.7
			L321.2,381.7c0,1.3,0,2.7,0,4.3c0,111.8-60.6,202.4-135.4,202.4C114,588.4,55,504.5,50.7,398.6C38.4,396.2,29,385.7,29,372.8
			c0-14.5,11.8-26.3,26.3-26.3c0,0,1.9-5.4,7-10.5c12.1-90.1,42.1-224.4,59.5-260.8c17.7-36.7,71.8-46.1,103.7-46.1
			s57.9,26,57.9,58.2s-26,58.2-58.2,58.2c0,0-7,5.4-3.2,9.7s-0.3,17.4-6.2,18.8c-5.9,1.6,31.6,15,36.7,55.2
			c2.7,11.5,43.4,27.3,51.2,90.9l8,0.8c16.9,0,30.8,14.7,30.8,31.6C342.7,366.1,333.5,377.9,321.2,381.7L321.2,381.7z M315.8,383
			h0.3c-1.3,0.3-2.7,0.3-4.3,0.3c0,0-8-0.3-20.6-0.5c0.5,1.6,1.3,3.5,1.9,5.4l0,0c4,13.4,5.9,27.6,5.9,41.8v7
			c0,22.3-18.2,40.5-40.5,40.5c-14.7,0-23.6-8.6-31.6-16.1c-6.2-5.9-11.5-11-18.8-11c-7.8,0-13.4,2.9-18,9.4l-4.3,6.4l-4.3-6.4
			c-4.3-6.2-10.5-9.4-18-9.4c-8,0-12.6,4.8-18.5,10.7c-7,7.2-15.5,16.4-32.4,16.4c-22.3,0-40.5-18.2-40.5-40.5v-7
			c0-8.6,0.8-17.2,2.1-25.5c0.5-2.1,1.1-4.8,1.6-7c0,0,0,0,0.3,0c-5.9,1.1-12.3,1.6-19,1.6c-0.3,0-0.8,0-1.1,0l0.3,5.4
			C62.5,505,118.5,583,185.8,583c71.3,0,129.2-87.1,130-194.6L315.8,383L315.8,383z M81.8,396.4c-2.4,10.7-4,21.7-4,33.2v7
			c0,19.6,15.8,35.1,35.1,35.1c27.6,0,29-27.1,50.9-27.1c9.7,0,17.4,4.6,22.3,11.8c4.8-7,11.8-11.8,22.3-11.8
			c19.6,0,26.5,27.1,50.4,27.1c19.6,0,35.1-15.8,35.1-35.1v-7c0-16.9-2.9-32.7-8-47.4c1.9,0,3.8,0,5.6,0.3
			c-15.8-0.5-39.1-1.1-62.5-1.9c2.4,1.9,4,4.6,4,7.8v21.2h-5.9l5.6,9.9c-0.8,4.8-4.8,8.3-9.7,8.3c-5.4,0-9.9-4.6-9.9-9.9v-29.5
			c0-3.5,1.6-6.4,4.3-8c-26-0.8-50.7-1.3-64.3-1.3c4.3,1.1,7.8,4.8,7.8,9.7v21.2h-6.2l5.9,9.9c-0.8,4.8-4.8,8.3-9.7,8.3
			c-5.4,0-9.9-4.6-9.9-9.9v-29.5c0-4.8,3.2-8.6,7.8-9.7c-0.5,0-1.1,0-1.3,0c-21.2,0-39.7,12.3-65.9,17.7
			C81.3,396.4,81.6,396.4,81.8,396.4L81.8,396.4z M337.3,352.5c0-13.9-11.3-26.3-25.5-26.3l-1.3-0.3l-68.6-10.2
			c18.8,0,36.2,2.7,56.6,3.8c-5.6-43.2-26.8-63-39.7-74.8c-5.9-5.6-10.2-9.7-11.5-14.5v-0.5c-3.2-26.3-21.7-40.2-30.6-46.9
			c-4.3-3.2-7.2-5.4-6.7-9.1c-8.6-4.6-27.6-13.1-53.6-16.4h0.8c29.2,3.8,48,10.5,54.4,13.1c0.8-0.8,1.9-1.3,2.9-1.6
			c0.5-0.3,1.6-1.3,2.7-4c1.1-2.9,1.1-5.4,0.8-6.2c-0.5-0.5-0.8-1.1-1.1-1.9c-7.8-2.4-24.9-11-60.3-38.3l-0.5-0.5
			c36.5,28.1,53.1,33.5,59.5,34.3c0-0.3,0-0.8,0-1.1c0.5-5.4,5.4-9.4,6.2-10.2l1.3-1.1h1.9c29,0,52.8-23.6,52.8-52.8
			c0.3-29-23.3-52.5-52.3-52.5c-36.2,0-83.6,11.3-98.9,43.2C110,112.5,80.5,241.2,67.9,334.5c7.5-3.2,26.3-9.7,64.1-13.7h0.5
			c-49.3,8-64.9,18-65.1,18l-1.3,1.3c-4,4-5.6,8.3-5.6,8.3l-1.3,3.5h-3.8c-11.5,0-20.9,9.4-20.9,20.9s9.1,20.6,20.9,20.9
			c0.5,0,1.3,0,1.9,0c20.9,0,36.7-5.6,52-11.3c12.6-4.6,24.7-8.8,37.8-8.8c27.1,0,160.6,4,164.6,4.3
			C325.8,377.7,337.3,366.4,337.3,352.5L337.3,352.5z"/>
		<path class="st4" d="M315.8,388.4c0-1.9,0-3.8,0-5.4c-1.3,0.3-2.7,0.3-4,0.3c0,0-2.1,0-5.9-0.3c0,1.6,0,3.2,0,4.8
			c0,66.5-21.4,129.7-53.9,167.5C289.8,521.4,315.3,459.2,315.8,388.4L315.8,388.4z"/>
		<path class="st5" d="M252.3,555.4c32.4-37.8,53.9-101.1,53.9-167.5c0-1.6,0-3.2,0-4.8c2.4,0,4.3,0,5.1,0.3c-0.5,0-1.3,0-2.4,0
			c-2.7,0-7.2-0.3-12.9-0.3c-1.3,0-2.9,0-4.6-0.3c0.5,1.6,1.3,3.5,1.9,5.4l0,0c4,13.4,5.9,27.6,5.9,41.8v7
			c0,22.3-18.2,40.5-40.5,40.5c-14.7,0-23.6-8.6-31.6-16.1c-6.2-5.9-11.5-11-18.8-11c-7.8,0-13.4,2.9-18,9.4l-4.3,6.4l-4.3-6.4
			c-4.3-6.2-10.5-9.4-18-9.4c-8,0-12.6,4.8-18.5,10.7c-7,7.2-15.5,16.4-32.4,16.4c-22.3,0-40.5-18.2-40.5-40.5v-7
			c0-8.6,0.8-17.2,2.1-25.5c0.3-1.3,0.5-2.7,0.8-4l0,0c0-0.3,0-0.5,0.3-0.5c0-0.3,0-0.5,0.3-0.8c0-0.3,0.3-0.8,0.3-1.1v-0.3l0,0
			c-0.3,0-0.3,0-0.5,0c-1.3,0.3-2.7,0.3-4,0.5c-0.3,0-0.3,0-0.5,0c-1.3,0.3-2.7,0.3-4,0.5c-0.5,0-1.1,0-1.6,0
			c-1.1,0-2.1,0.3-3.2,0.3c-1.6,0-3.2,0-5.1,0c-0.3,0-0.8,0-1.1,0l0.3,5.4C62.5,505,118.5,583,185.8,583c25.2,0,48.5-11,68.4-29.5
			C253.7,554.1,252.9,554.6,252.3,555.4L252.3,555.4z"/>
		<path class="st6" d="M256.1,471.8L256.1,471.8c0.8,0,1.6,0,2.7,0c19.6,0,35.1-15.8,35.1-35.1v-7c0-16.9-2.9-32.7-8-47.4l-26.8-0.8
			c5.6,14.2,9.1,30.6,9.1,49.6C267.9,441.7,268.7,469.1,256.1,471.8L256.1,471.8z"/>
		<path class="st7" d="M267.9,431c0-19-3.5-35.4-9.1-49.6l0,0l-30-0.8c2.4,1.9,3.8,4.6,3.8,7.8v21.2h-5.9l5.6,9.9
			c-0.8,4.8-4.8,8.3-9.7,8.3c-5.4,0-9.9-4.6-9.9-9.9v-29.5c0-3.2,1.6-6.2,4-8l-63.8-1.6c4.3,1.1,7.2,4.8,7.2,9.7v21.2h-5.4l5.9,9.9
			c-0.8,4.8-4.8,8.3-9.7,8.3c-5.4,0-9.9-4.6-9.9-9.9v-29.5c0-4.8,3.2-8.6,7.8-9.7h-1.3c-1.3,0-2.7,0-4,0.3c-0.5,0-0.8,0-1.3,0
			c-0.8,0-1.9,0.3-2.7,0.3c-0.5,0-1.1,0.3-1.6,0.3c-0.8,0-1.6,0.3-2.4,0.3c-0.5,0-1.1,0.3-1.9,0.3c-0.8,0.3-1.3,0.3-2.1,0.5
			c-0.5,0.3-1.3,0.3-1.9,0.5c-0.5,0.3-1.3,0.3-1.9,0.5c-0.5,0.3-1.3,0.3-1.9,0.5c-0.5,0.3-1.3,0.3-1.9,0.5c-0.8,0.3-1.3,0.5-2.1,0.8
			c-0.5,0.3-1.1,0.3-1.9,0.5c-0.8,0.3-1.6,0.5-2.4,0.8c-0.5,0.3-1.1,0.3-1.6,0.5c-1.3,0.5-2.4,0.8-3.8,1.3c0,0,0,0-0.3,0
			c-1.3,0.5-2.7,1.1-4.3,1.6c-0.3,0-0.5,0.3-0.8,0.3c-1.1,0.3-2.1,0.8-3.2,1.1c-0.5,0.3-0.8,0.3-1.3,0.5c-1.1,0.3-1.9,0.5-2.9,1.1
			c-0.5,0.3-1.1,0.3-1.6,0.5c-0.8,0.3-1.9,0.5-2.7,0.8c-0.5,0.3-1.1,0.3-1.6,0.5c-0.8,0.3-1.9,0.5-2.7,0.8c-0.5,0.3-1.3,0.3-1.9,0.5
			c-0.8,0.3-1.9,0.5-2.7,0.8c-0.5,0.3-1.3,0.3-1.9,0.5c-0.8,0.3-1.6,0.3-2.4,0.5c-0.3,1.1-0.3,1.9-0.5,2.9c-0.3,1.6-0.8,3.5-1.1,5.1
			c0,0.3,0,0.5-0.3,1.1c-0.5,2.4-0.8,4.8-1.1,7.2c0,1.1-0.3,2.1-0.3,3.2c-0.3,1.9-0.3,3.5-0.5,5.4c-0.3,2.9-0.3,5.6-0.3,8.6v7
			c0,19.6,15.8,35.1,35.1,35.1c27.6,0,29-27.1,50.9-27.1c9.7,0,17.4,4.6,22.3,11.8c4.8-7,11.8-11.8,22.3-11.8c1.1,0,2.1,0,3.2,0.3
			c0,0,0,0,0.3,0c1.1,0.3,1.9,0.5,2.9,0.8h0.3c0.8,0.3,1.9,0.8,2.7,1.1c0,0,0.3,0,0.3,0.3c0.8,0.5,1.6,0.8,2.4,1.3
			c0.3,0,0.3,0.3,0.5,0.3c0.8,0.5,1.6,1.1,2.1,1.6c0.3,0,0.3,0.3,0.5,0.3c0.8,0.5,1.3,1.1,2.1,1.6c0.3,0.3,0.5,0.3,0.8,0.5
			c0.5,0.5,1.1,1.1,1.9,1.6c7.8,7.2,15.5,15.8,27.9,16.9l0,0C268.7,469.1,267.9,441.7,267.9,431L267.9,431z"/>
		<path class="st8" d="M226.3,85.7l37.5,4.6c-0.5,15.5-6.2,34-16.6,45.3c18.2-8.3,31.1-26.8,31.1-48s-12.6-39.4-30.6-47.7l0,0
			c-0.3,0-0.3-0.3-0.5-0.3c-0.8-0.3-1.6-0.8-2.7-1.1c-0.5-0.3-1.1-0.5-1.9-0.5c-0.8-0.3-1.6-0.5-2.1-0.8h-0.3l0,0
			c-2.9-0.8-5.9-1.3-8.8-1.9c1.3,1.3,2.7,2.7,4.3,4.3L219.1,49l-13.9-12.9c-3.8,0-7.5,0.5-11.3,1.1l4.6,22.8l-33,18.5l37.5,4.6
			l7.5,37L226.3,85.7L226.3,85.7z M263.6,88.1c0,0.5,0,1.1,0,1.9L236,64.5l7.5-16.1C253.4,60.3,263.6,75.5,263.6,88.1z M337.3,352.5
			c0,13.9-11.3,25.2-25.2,25.5c0,0,16.4-8.8,16.4-24.4c0-12.9-12.1-23.9-16.4-27.1C325.8,326.2,337.3,338.5,337.3,352.5L337.3,352.5
			z M215.9,151.1c0,0.3,0,0.8,0,1.1c-1.3-0.3-3.2-0.5-5.6-1.3c1.6-8.6,11.8-9.9,11.8-9.9C221.2,142,216.4,145.8,215.9,151.1z
			 M213.7,161.3c0,0-3.8-1.3-3.8-7.5c2.9,1.3,5.1,2.4,7,2.9c0.3,0.5,0.8,1.1,1.1,1.9c0.3,0.5,0.5,3.2-0.8,6.2c-1.1,2.7-2.4,4-2.7,4
			c-1.1,0.3-2.1,0.8-2.9,1.6c-0.3,0-0.8-0.3-1.1-0.5C214.2,167.8,213.7,161.3,213.7,161.3L213.7,161.3z M298.4,319.5
			c-4.6-0.3-8.8-0.5-13.1-0.8c-3.2-33.2-40.7-63.5-40.7-63.5s-14.5-18.8-16.4-31.1s-20.4-30.8-22.8-36.2c-2.4-5.1-2.7-9.4-0.3-16.6
			c1.9,0.8,3.5,1.6,4.8,2.4c-0.5,3.8,2.4,5.9,6.7,9.1c8.8,6.7,27.3,20.6,30.6,46.9v0.5c1.1,4.8,5.4,8.8,11.5,14.5
			C271.6,256.5,292.8,276.3,298.4,319.5L298.4,319.5z"/>
		<path class="st9" d="M243.5,48.2c9.9,12.1,20.1,27.3,20.1,39.9c0,0.5,0,1.1,0,1.9L236,64.6L243.5,48.2L243.5,48.2z M218.8,48.5
			l16.6-9.4c-1.6-1.6-2.9-3.2-4.3-4.3c2.9,0.3,5.9,1.1,8.8,1.9l0,0c0,0,0,0,0.3,0c0.8,0.3,1.6,0.5,2.7,0.8c0.5,0.3,0.8,0.3,1.3,0.5
			c1.1,0.3,1.9,0.8,2.9,1.3c0.3,0,0.3,0,0.5,0.3c-7-3.2-14.5-5.1-22.3-5.1c-6.4,0-13.4,0.3-20.4,1.1L218.8,48.5L218.8,48.5z
			 M328.4,353.3c0-12.9-12.1-23.9-16.4-27.1l0,0l-1.3-0.3l-68.6-10.2c14.7,0,28.4,1.6,43.4,2.9c-3.2-33.2-40.7-63.5-40.7-63.5
			s-14.5-18.8-16.4-31.1s-20.4-30.8-22.8-36.2c-2.4-5.1-2.7-9.4-0.3-16.6c1.9,0.8,3.5,1.6,4.8,2.4l0,0v-0.3c0.3-1.1,0.8-2.1,1.6-2.9
			c-0.3,0-0.8-0.3-1.1-0.5c3.5-2.1,3.2-8.6,3.2-8.6s-3.8-1.3-3.8-7.5c2.9,1.3,5.1,2.4,7,2.9l0,0c-0.8-1.6-1.3-3.5-1.1-5.6
			c0,0.3,0,0.8,0,1.1c-1.3-0.3-3.2-0.5-5.6-1.3c1.6-8.6,11.8-9.9,11.8-9.9l1.3-1.1h1.9c7.8,0,15-1.6,21.4-4.6
			c10.5-11.3,16.4-29.8,16.6-45.3L226,85.5l-15.8,34.3L203,83l-37.5-4.6l33-18.5l-4.6-22.8c-28.1,5.1-56.3,17.2-67.3,40.2
			c-16.6,35.4-46.6,166.2-59,259.5l-0.3,1.9l-1.3,1.3c-4,4-5.6,8.3-5.6,8.3l-1.3,3.5h-3.8c-11.5,0-20.9,9.4-20.9,20.9
			c0,11.5,9.1,20.6,20.9,20.9c0.5,0,1.3,0,1.9,0c20.9,0,36.7-5.6,52-11.3c12.6-4.6,24.7-8.8,37.8-8.8c27.1,0,160.6,4,164.6,4.3
			C311.8,377.9,328.4,369.1,328.4,353.3L328.4,353.3z"/>
	</g>
</g>
<g id="Layer_3">
	<g>
		<path class="st5" d="M658.9,385.4c0-23.3-4-43.4-10.2-60.6c-15.3-6.2-33.5-10.2-48.5-10.2c-32.2,0-44.2,14.2-83.4,14.2
			c-7.8,0-14.7-0.5-20.9-1.3l0,0c-19.8,18-32.7,16.4-49.1,31.4c-16.6,15-32.7,47.4-23.1,57.9c-6.2-7-11.3-14.2-14.7-22l0,0
			c2.9,104.5,60,188.5,130,188.5c19.6,0,38.3-6.7,55.2-18.8C632.4,529.1,659,459.4,658.9,385.4L658.9,385.4z M513.1,388.9v29.5
			c0,5.4-4.6,9.9-9.9,9.9s-9.9-4.6-9.9-9.9v-21.2h5.9l-5.9-9.9c0.8-4.8,4.8-8.3,9.7-8.3C508.8,378.8,513.1,383.3,513.1,388.9
			L513.1,388.9L513.1,388.9z M529.2,551.1v10.7c0,1.9-1.6,3.8-3.8,3.8c-2.1,0-3.8-1.6-3.8-3.8v-11c0-1.9,1.6-3.8,3.8-3.8
			C527.6,547.1,529.2,549,529.2,551.1L529.2,551.1L529.2,551.1z M555.5,551.1v10.7c0,1.9-1.6,3.8-3.8,3.8s-3.8-1.6-3.8-3.8v-11
			c0-1.9,1.6-3.8,3.8-3.8S555.5,549,555.5,551.1L555.5,551.1L555.5,551.1z M585.2,388.9v29.5c0,5.4-4.6,9.9-9.9,9.9
			s-9.9-4.6-9.9-9.9v-21.2h5.9l-5.9-10.2c0.8-4.6,4.8-8,9.7-8C580.7,378.8,585.2,383.3,585.2,388.9L585.2,388.9L585.2,388.9z
			 M593.8,564.5c1.1-0.8,2.4-1.6,3.5-2.7C596.2,562.9,594.9,563.7,593.8,564.5L593.8,564.5z"/>
		<path d="M552,547.4c-1.9,0-3.8,1.6-3.8,3.8v11c0,1.9,1.6,3.8,3.8,3.8s3.8-1.6,3.8-3.8l0,0v-10.7C555.5,549,553.9,547.4,552,547.4
			L552,547.4z M525.4,547.4c-1.9,0-3.8,1.6-3.8,3.8v11c0,1.9,1.6,3.8,3.8,3.8c2.1,0,3.8-1.6,3.8-3.8l0,0v-10.7
			C529.2,549,527.6,547.4,525.4,547.4L525.4,547.4z M585.2,388.7L585.2,388.7v29.8c0,5.4-4.6,9.9-9.9,9.9s-9.9-4.6-9.9-9.9v-21.2
			h5.9l-5.9-10.2c0.8-4.6,4.8-8,9.7-8C580.7,378.7,585.2,383.3,585.2,388.7L585.2,388.7z M513.1,388.7L513.1,388.7v29.8
			c0,5.4-4.6,9.9-9.9,9.9s-9.9-4.6-9.9-9.9v-21.2h5.9l-5.9-9.9c0.8-4.8,4.8-8.3,9.7-8.3C508.8,378.8,513.1,383.3,513.1,388.7
			L513.1,388.7z M743.1,546c-18.8,0-46.4-16.6-68.4-37.8l0,0c19.3-2.9,38.6-9.4,57.4-19.3c-2.9,1.6-6.4,2.4-10.2,2.4
			c-16.1,0-37.5-13.4-57.1-31.6l0,0c5.9-22.8,9.1-47.4,9.1-73.5c0-18.8-1.9-35.4-5.1-50.1l0,0c7.2,5.4,11.8,11.5,11.8,17.7
			c0-31.1-9.9-57.9-28.7-79.4c11.8-9.4,20.9-21.7,26.5-37.3c-2.9,7.5-16.1,11-30.8,11c-10.7,0-22.3-1.9-31.1-5.1
			c-13.4-4.8-20.1-11.5-29.8-18.2L555.5,89v-0.5c-2.4-8-8.3-12.3-16.4-12.3c-11.8,0-15.8,7-16.9,12.9l-30.6,128.1
			c-0.3,0-0.3,0-0.5,0c-13.1,0-25.2,4.8-34.6,12.9l0,0c-29,15.5-44,46.9-40.2,78l0,0c-2.9,5.4-5.6,10.7-7.8,16.1l0,0
			c-0.5,1.6-1.3,2.9-1.9,4.6c-14.5,36.2-5.6,52.8-17.7,82.8c-11,27.3-41.3,61.7-60.9,61.7c-1.9,0-3.5-0.3-5.1-1.1
			c15.5,6.2,31.1,9.1,46.4,9.1c15.8,0,31.4-3.2,46.4-9.9c21.4,69.2,68.4,117.1,122.8,117.1c24.9,0,48-9.9,68.1-27.3l0,0
			c18.8,6.4,37.8,9.9,56.6,9.9c31.4,0,62.5-9.1,92-28.1C751.7,545.2,747.7,546,743.1,546L743.1,546z M707.7,494
			c-19.6,7.2-39.4,11-59.5,11l0,0c5.9-12.3,11-25.5,15-39.7l0,0C678,478.7,693.5,489.5,707.7,494z M590.9,233.7
			c6.7,4.8,13.4,10.2,24.1,13.9c9.4,3.5,21.2,5.4,33,5.4c4.3,0,11-0.3,17.7-1.9c-15.3,23.9-41.6,37-75.6,37c-8,0-16.4-0.8-24.9-2.1
			c3.8-0.8,7.5-1.9,10.7-3.2c16.1-6.2,19.8-14.7,19.8-21.2v-0.8l-0.3-0.8l-6.4-27.9C589.8,232.9,590.3,233.4,590.9,233.7z M527.3,90
			c1.1-5.4,4.6-8.6,11.8-8.6c5.4,0,9.4,2.1,11.3,8.6l14.7,63.3c-4-1.6-7.8-3.5-11.8-5.6c-12.9-6.7-24.9-15-34.3-23.3L527.3,90z
			 M517.7,130.5c9.4,8,20.9,15.5,33.2,22c5.1,2.7,10.5,5.1,15.8,7.2l12.6,53.3c-9.4-2.7-19.8-7-30.3-12.3c-15.5-8-29.2-18-39.1-27.9
			c-0.5-0.5-1.1-1.3-1.6-1.9C508.3,171,517.7,130.5,517.7,130.5z M506.4,177.4c10.2,9.9,24.1,20.1,39.9,28.1
			c11.8,6.2,23.6,11,34.3,13.7l9.9,42.4c0,3.8-1.9,7-4.8,9.7c-11.3-1.6-26-6.7-40.7-14.2c-22.5-11.8-41.3-27.6-48-40.2L506.4,177.4
			L506.4,177.4z M495.4,224.3c8.8,12.6,26.3,26.5,47.2,37.5c12.9,6.7,25.7,11.5,36.7,13.9c-9.9,5.1-25.2,7.8-40.5,7.8
			c-25.7,0-51.7-7.5-51.7-22.3V260L495.4,224.3z M490.3,222.5l-8.6,36.5l-0.3,0.5v1.9c0,6.4,3.5,15.3,19.8,21.4
			c10.2,3.8,23.3,5.9,37.5,5.9c3.8,0,7.5-0.3,11-0.5l0,0c14.5,3.5,27.9,5.1,40.7,5.1c22.8,0,42.4-5.6,57.6-16.1
			c13.7,15.5,22.5,34.3,26,55.5c-5.1-4-11.3-7.8-19-11.3c-17.2-7.8-38.1-12.3-54.7-12.3c-16.1,0-27.9,3.5-38.9,6.7
			c-12.1,3.5-24.7,7.2-44.5,7.2c-30.3,0-51.7-7-63.5-20.9c-12.3-14.2-9.9-31.4-9.9-31.6v-1.1C443.4,244.2,464.3,223,490.3,222.5
			L490.3,222.5z M424.4,276.6c3.8-12.3,10.7-23.1,19.8-31.4l0,0c-4,7.5-6.2,15.8-6.2,24.9c0,0-0.3,1.9-0.3,5.1
			c-6.7,7.2-11.8,14.5-16.6,24.1C420.9,291.9,422,284.1,424.4,276.6L424.4,276.6z M408.3,343.1c4-19.3,14.5-39.1,30.6-58.4
			c2.9,14.2,13.7,34.8,50.4,41.6l0,0c-8.3,7-15.3,10.2-22.3,13.7c-7.5,3.5-15,7.2-23.6,15c-11.3,10.2-22.8,28.1-26.3,43.4
			C407.2,382,404.3,363.2,408.3,343.1L408.3,343.1z M414.2,466.1c-14.5,6.4-29.5,9.7-44.8,9.7c-8,0-16.4-0.8-24.7-2.7
			c19.3-11,40.2-37.3,49.3-59.8c5.9-15,7-27.1,8-38.9c0-0.3,0-0.8,0-1.1l0,0c0.3,2.1,0.8,4.3,1.3,6.2c0,2.1,0,4.3,0,6.7
			C403.2,414.7,407.2,441.7,414.2,466.1L414.2,466.1L414.2,466.1z M408.8,394.8L408.8,394.8c3.8,7.8,8.6,15,14.7,22
			c-9.4-10.5,6.7-42.6,23.1-57.9c16.4-15,29.2-13.4,49.1-31.4l0,0c6.2,0.8,13.1,1.3,20.9,1.3c39.1,0,51.2-14.2,83.4-14.2
			c19.6,0,45.3,7,62.5,17.2l0,0c4,16.1,6.2,34.3,6.2,54.4c0,108.6-58.4,197-130,197C468.9,583.3,411.8,499.4,408.8,394.8
			L408.8,394.8z M663.2,565.6c-17.4,0-34.8-2.9-52-8.6l0,0c13.1-12.6,24.7-28.4,34.3-46.6c0.8,0,1.6,0,2.4,0
			c6.7,0,13.4-0.5,19.8-1.1l0,0c19.6,19,43.7,35.7,63.5,40.7C709.6,560.5,686.6,565.6,663.2,565.6L663.2,565.6z"/>
		<path class="st10" d="M562.2,213.1c4.3,22.3,8.3,42.6,11,55.5c-8.8-2.4-18.5-6.4-28.1-11.5c-22.5-11.8-41.3-27.6-48-40.2l9.4-39.4
			c10.2,9.9,24.1,20.1,39.9,28.1C551.7,208.5,557.1,210.9,562.2,213.1C562.2,213.1,562.2,213.1,562.2,213.1z M542.6,261.9
			c-20.9-11-38.3-24.9-47.2-37.5l-8.6,35.9v1.3c0,14.5,26,22.3,51.7,22.3c13.1,0,26.3-2.1,36.2-5.9c-0.3-0.8-0.3-1.9-0.5-3.2
			C564.6,272,553.6,267.8,542.6,261.9L542.6,261.9z M548.8,201c6.7,3.5,13.1,6.4,19.6,8.8c-2.4-1.1-5.1-1.9-7.5-2.9
			c-3.5-18-7.2-37.3-10.7-54.4c-12.1-6.4-23.3-13.9-32.4-21.7l-9.7,40.5c0.5,0.5,1.1,1.3,1.6,1.9C519.5,183.1,533.5,193,548.8,201
			L548.8,201z M538.6,90c0-5.4-6.4-7-6.7-7c0,0,0,0,0.3,0l2.4-1.1c0.5-0.3,1.3-0.3,2.1-0.5c-5.6,0.5-8.3,3.8-9.1,8.6l-8.3,34.6
			c8.3,7.2,18.5,14.5,29.8,20.6C543.1,115.5,538.6,91.9,538.6,90L538.6,90z"/>
		<path class="st11" d="M580.7,219.2l9.9,42.4l0,0c0,0.8-0.3,1.6-0.3,2.4v0.3c-0.3,0.8-0.5,1.3-0.8,2.1c0,0,0,0.3-0.3,0.3
			c-0.3,0.5-0.8,1.3-1.1,1.9l-0.3,0.3c-0.5,0.5-1.1,1.1-1.6,1.9L586,271l-0.3,0.3c-3.8-0.5-8-1.3-12.6-2.7
			c-2.7-12.9-6.7-33.2-11-55.5C568.6,215.7,574.8,217.9,580.7,219.2L580.7,219.2z M574.2,274.5c0.3,1.1,0.5,2.1,0.5,3.2h0.3l0,0
			c1.3-0.5,2.7-1.1,3.8-1.6h0.3C577.7,275.3,575.8,275,574.2,274.5L574.2,274.5z M566.7,160c-5.4-2.1-10.5-4.6-15.8-7.2
			c-0.3,0-0.5-0.3-0.8-0.3c3.5,17.4,7.2,36.5,10.7,54.4c6.4,2.7,12.6,5.1,18.5,6.7L566.7,160L566.7,160z M536.4,81.4
			c-0.8,0-1.6,0.3-2.1,0.5l-2.1,1.1c0,0,0,0-0.3,0c0.5,0,7,1.6,6.7,7c0,1.9,4.3,25.5,10.2,55.2c1.6,0.8,2.9,1.6,4.6,2.4
			c3.8,2.1,7.8,3.8,11.8,5.6L550.4,90c-1.9-6.4-6.2-8.6-11.3-8.6C538,81.4,537.2,81.4,536.4,81.4L536.4,81.4L536.4,81.4z"/>
		<path class="st9" d="M660,324.1c-1.6-0.8-3.2-1.6-5.1-2.4c-17.2-7.8-38.1-12.3-54.7-12.3c-16.1,0-27.9,3.5-38.9,6.7
			c-12.1,3.5-24.7,7.2-44.5,7.2c-30.3,0-51.7-7-63.5-20.9c-12.3-14.2-9.9-31.4-9.9-31.6v-1.1c0-26,20.9-47.2,46.9-47.7l-8.6,36.5
			l-0.3,0.5v1.9c0,6.4,3.5,15.3,19.8,21.4c10.2,3.8,23.3,5.9,37.5,5.9c1.9,0,3.8,0,5.6,0l0,0c1.9,0,3.5-0.3,5.4-0.3l0,0l0,0
			c14.5,3.5,27.9,5.1,40.7,5.1c17.7,0,33.5-3.5,47.2-10.2l0,0C640.5,287.6,653.9,305.8,660,324.1L660,324.1z M709.9,558.4
			l-43.7-48.8c0.5,0,1.3,0,1.9-0.3c-6.7,0.8-13.4,1.1-19.8,1.1c-0.8,0-1.6,0-2.4,0c-9.7,18.2-21.2,34-34.3,46.6l0,0
			c17.2,5.6,34.6,8.6,52,8.6c19,0,37.5-3.5,55.8-10.5C716.1,556.5,712.8,557.6,709.9,558.4L709.9,558.4z"/>
		<path class="st8" d="M660,324.1c-5.9-18.2-19.6-36.7-22.5-40.5c3.8-1.9,7.2-3.8,10.7-6.2c13.7,15.5,22.5,34.3,26,55.5
			C670.2,330,665.4,327,660,324.1z M394.1,413.3c-8.8,22.5-30,48.8-49.3,59.8c8.3,1.9,16.6,2.7,24.7,2.7c15.5,0,30.6-3.2,44.8-9.7
			l0,0c-7-24.7-11-51.5-11-79.9c0-2.1,0-4.6,0-6.7c-0.5-2.1-0.8-4-1.3-6.2l0,0c0,0.3,0,0.8,0,1.1C401.1,386.3,400,398.3,394.1,413.3
			L394.1,413.3z M731.6,550c-19.8-5.1-44.2-21.4-63.5-40.7l0,0c-0.5,0-1.3,0-1.9,0.3l44,48.8C717.4,556.2,724.6,553.3,731.6,550
			L731.6,550z M416.9,398.6c3.8-15.3,15-33.2,26.3-43.4c8.6-7.8,16.1-11.5,23.6-15c7-3.2,13.9-6.7,22.3-13.7l0,0c0,0,0,0-0.3,0
			c-1.9-0.3-4-0.8-5.6-1.3c-0.3,0-0.8-0.3-1.1-0.3c-1.9-0.5-3.5-1.1-5.1-1.6c-0.3,0-0.8-0.3-1.1-0.3c-1.6-0.5-3.2-1.1-4.6-1.6
			c-0.3,0-0.5-0.3-0.8-0.3c-1.6-0.5-2.9-1.3-4.3-1.9l-0.3-0.3c-1.3-0.5-2.4-1.3-3.8-2.1c-0.3,0-0.3-0.3-0.5-0.3
			c-1.1-0.8-2.4-1.3-3.5-2.1c-0.3-0.3-0.5-0.3-0.8-0.5c-1.1-0.8-1.9-1.6-2.9-2.4c-0.3-0.3-0.5-0.3-0.5-0.5c-0.8-0.8-1.9-1.6-2.7-2.4
			c-0.3-0.3-0.3-0.3-0.5-0.5c-0.8-0.8-1.6-1.6-2.4-2.7c0,0,0,0,0-0.3c-0.8-0.8-1.3-1.9-2.1-2.7l-0.3-0.3c-0.5-0.8-1.1-1.9-1.6-2.7
			c0-0.3-0.3-0.3-0.3-0.5c-0.5-0.8-1.1-1.9-1.3-2.7c0,0,0-0.3-0.3-0.3c-0.5-1.1-0.8-1.9-1.3-2.7l0,0c-1.3-2.9-2.1-5.9-2.7-8.6
			c-16.1,19.3-26.5,39.1-30.6,58.4C404.3,363.2,407.2,382,416.9,398.6L416.9,398.6z"/>
		<path class="st12" d="M648.2,505c5.9-12.3,11-25.7,15-39.7c2.7,2.4,5.1,4.6,7.8,6.7l20.1,27.1C676.9,503.1,662.7,505,648.2,505
			L648.2,505z M438.1,270.2c0-9.1,2.1-17.4,6.2-24.9c-9.1,8.6-15.8,19.3-19.8,31.4c-2.4,7.5-3.5,15-3.2,22.8
			c4.8-9.1,10.2-17.2,16.6-24.1C437.8,272.3,438,270.2,438.1,270.2L438.1,270.2z M590.9,233.7c-0.5-0.5-1.1-0.8-1.9-1.3l6.4,27.9
			l0.3,0.8v0.8c-0.3,6.2-3.8,15-19.8,21.2c-1.6,0.5-3.5,1.3-5.4,1.9h-0.3c-1.6,0.5-3.2,0.8-5.1,1.3c4.3,0.8,8.6,1.3,12.9,1.6
			s8.3,0.5,12.3,0.5c8.8,0,17.4-0.8,25.2-2.7l0,0l31.4-30.6l1.3-1.9c0,0,0,0,0.3,0c0,0,0,0-0.3,0c-11.8,0-23.6-1.9-33-5.4
			C604.5,243.9,597.6,238.8,590.9,233.7L590.9,233.7z"/>
		<path class="st13" d="M691.4,499.4l-20.1-27.1c12.3,10.2,24.9,18,36.5,22C702.1,496.2,696.7,497.8,691.4,499.4z M665.9,251.4
			c-6.7,1.6-13.4,1.9-17.7,1.9l-1.3,1.9l-31.4,30.6C637.5,280.9,654.7,269.1,665.9,251.4L665.9,251.4z"/>
		<path class="st4" d="M668.9,386.3c0,0.3,0,0.5,0,0.5c0,2.7,0,5.6-0.3,8.3c0,1.1,0,1.9,0,2.9c0,2.1-0.3,4.3-0.3,6.4
			c0,0.8,0,1.9-0.3,2.7c-0.3,2.9-0.5,5.6-0.8,8.6c0,0.8-0.3,1.6-0.3,2.1c-0.3,2.1-0.5,4.3-0.8,6.4c0,1.1-0.3,2.1-0.5,2.9
			c-0.3,2.1-0.5,4-1.1,6.2c0,0.8-0.3,1.6-0.3,2.4c-0.5,2.7-1.1,5.4-1.6,7.8c-0.3,1.1-0.5,1.9-0.5,2.9c-0.3,1.9-0.8,3.5-1.1,5.4
			c-0.3,1.1-0.5,2.1-0.8,3.2c-0.5,2.1-1.1,4-1.6,6.2c-0.3,1.1-0.5,2.4-1.1,3.5c-0.5,1.9-1.1,3.5-1.6,5.4c-0.3,1.1-0.8,2.1-1.1,3.5
			c-0.5,1.3-0.8,2.7-1.3,4.3c-0.3,1.1-0.8,2.1-1.1,3.5c-0.8,2.1-1.6,4.3-2.4,6.4c-0.5,1.1-1.1,2.4-1.3,3.5c-0.5,1.1-1.1,2.4-1.3,3.5
			c-0.5,1.3-1.1,2.4-1.6,3.8c-0.5,1.1-1.1,2.1-1.3,2.9c-1.1,2.1-2.1,4.6-3.2,6.7c-0.5,0.8-0.8,1.6-1.3,2.4c-0.8,1.3-1.3,2.7-2.1,3.8
			c-0.5,0.8-0.8,1.6-1.3,2.1c-0.8,1.3-1.6,2.7-2.1,3.8c-0.3,0.5-0.5,1.1-0.8,1.3c-1.6,2.7-3.2,5.1-4.8,7.5c-0.3,0.5-0.5,0.8-0.8,1.3
			c-0.8,1.3-1.9,2.4-2.7,3.8c-0.3,0.5-0.8,0.8-1.1,1.3c-2.9,4-6.2,7.8-9.7,11.3c-0.3,0.3-0.5,0.5-0.8,0.8c-1.1,1.1-2.1,2.4-3.2,3.5
			c-0.3,0.3-0.3,0.3-0.5,0.5c-3.5,3.5-7.2,6.7-11,9.7c-0.3,0.3-0.5,0.5-0.8,0.8c-1.3,0.8-2.4,1.9-3.8,2.7
			c38.6-35.4,65.1-105.4,65.1-179.1c0-23.3-4-43.4-10.2-60.6c5.1,2.1,9.7,4.3,13.9,6.7l0,0c0.5,1.9,1.1,4,1.3,5.9c0,0.3,0,0.3,0,0.5
			c1.1,5.6,2.1,11.5,2.9,17.4c0,0.8,0.3,1.3,0.3,2.1c0.3,1.3,0.3,2.7,0.5,4.3c0,1.3,0.3,2.7,0.3,4c0,1.1,0.3,2.4,0.3,3.5
			c0,1.9,0.3,3.5,0.3,5.4c0,0.8,0,1.9,0,2.7C668.6,380.6,668.9,383.3,668.9,386.3L668.9,386.3z"/>
	</g>
</g>
<g id="Layer_2">
	<g>
		<path class="st6" d="M977.4,430.5c0-93.8-85.2-126.8-85.2-126.8c59.8,0,108,56.3,108,125.5v7c0,19.6-15.8,35.1-35.1,35.1l0,0
			C978.2,469.6,977.4,441.2,977.4,430.5L977.4,430.5z"/>
		<path class="st7" d="M977.4,430.5c0-93.8-85.2-126.8-85.2-126.8c-59.8,0-108,56.3-108,125.5v7c0,19.6,15.8,35.1,35.1,35.1
			c27.6,0,29-27.1,50.9-27.1h44.5c19.6,0,26.5,27.1,50.4,27.1l0,0l0,0C978.2,469.6,977.4,441.2,977.4,430.5L977.4,430.5z
			 M866.9,388.1v29.5c0,5.4-4.6,9.9-9.9,9.9c-4.8,0-8.8-3.5-9.7-8.3l5.9-9.9h-5.9v-21.4c0-5.4,4.6-9.9,9.9-9.9
			C862.6,377.9,866.9,382.5,866.9,388.1L866.9,388.1L866.9,388.1z M939,388.1v29.5c0,5.4-4.6,9.9-9.9,9.9c-4.8,0-8.8-3.5-9.7-8
			l5.9-10.2h-5.9v-21.4c0-5.4,4.6-9.9,9.9-9.9S939,382.5,939,388.1L939,388.1z"/>
		<path class="st9" d="M800.2,273.1c-25.2,23.9-38.1,61.7-38.1,112.3c0,108.6,58.4,197,130,197c21.2,0,41-7.8,58.7-21.2
			c-1.1,0.8-2.4,1.9-3.5,2.7c38.6-35.4,65.1-105.4,65.1-179.1c0-77.5-43.7-118.2-67-134.6c-15.5-5.4-33.2-8-53.3-8
			C852.7,242,821.6,252.5,800.2,273.1L800.2,273.1z M1005.5,429.4v7c0,22.3-18.2,40.5-40.5,40.5c-14.7,0-23.6-8.6-31.6-16.1
			c-6.2-5.9-11.5-11-18.8-11h-44.5c-8,0-12.6,4.8-18.5,10.7c-7,7.2-15.5,16.4-32.4,16.4c-22.3,0-40.5-18.2-40.5-40.5v-7
			c0-72.1,50.9-130.8,113.4-130.8C954.6,298.3,1005.5,357,1005.5,429.4L1005.5,429.4z M895.1,263.5c1.3-1.3,1.6-3.2,0.8-4.8l17.4-8
			l-8,17.4c-1.6-0.8-3.5-0.5-4.8,0.8c-1.6,1.6-1.6,4.3,0,5.9c1.3,1.3,3.2,1.6,4.8,0.8l8,17.4l-17.7-8c0.5-1.3,0.3-3.2-1.1-4.3
			c-1.6-1.6-4.3-1.6-5.9,0c-1.3,1.3-1.6,2.9-0.8,4.6l-17.2,7.8l7.8-17.2c1.6,0.5,3.2,0.3,4.6-0.8c1.6-1.6,1.6-4.3,0-5.9
			c-1.1-1.1-2.9-1.6-4.3-1.1l-8-17.7l17.4,8c-0.8,1.6-0.5,3.5,0.8,4.8C890.8,265.1,893.5,265.1,895.1,263.5z"/>
		<path class="st8" d="M947.1,564c44.2-31.4,75.1-99.5,75.1-178.5c0-50.7-12.9-88.5-38.1-112.3c-10.7-10.2-23.6-17.7-38.9-23.1
			c23.3,16.4,67,57.1,67,134.6C1012.2,458.6,985.7,528.6,947.1,564z M900.7,275c-1.6-1.6-1.6-4.3,0-5.9c1.3-1.3,3.2-1.6,4.8-0.8
			l8-17.4l-17.4,8c0.8,1.6,0.5,3.5-0.8,4.8c-1.6,1.6-4.3,1.6-5.9,0c-1.3-1.3-1.6-3.2-0.8-4.8l-17.4-8l8,17.7
			c1.3-0.5,3.2-0.3,4.3,1.1c1.6,1.6,1.6,4.3,0,5.9c-1.3,1.3-2.9,1.6-4.6,0.8l-7.8,17.2l17.2-7.8c-0.5-1.6-0.3-3.2,0.8-4.6
			c1.6-1.6,4.3-1.6,5.9,0c1.1,1.1,1.6,2.9,1.1,4.3l17.7,8l-8-17.4C903.9,276.6,901.8,276.3,900.7,275z M1020.5,303.4l-11.3-5.9
			c-6.2-11.8-13.9-21.7-22.8-29.8h34C1020.5,267.7,1020.5,303.4,1020.5,303.4z M985.4,225.1l20.1,29.8l-11.3,7.8h-13.9
			c-0.5-0.5-1.1-0.8-1.6-1.1c-0.5-0.3-0.8-0.5-1.3-0.8c-2.7-1.9-5.4-3.8-8-5.4C969.3,255.4,985.4,225.1,985.4,225.1z"/>
		<path d="M1027.2,374.2c0-1.1,0-2.1-0.3-3.2c0-2.7-0.3-5.1-0.5-7.5c0-1.1-0.3-2.1-0.3-3.2c-0.3-2.4-0.5-4.8-0.8-7.2
			c0-1.1-0.3-1.9-0.3-2.9c-0.3-2.7-0.8-5.1-1.3-7.5c0-0.5-0.3-1.3-0.3-1.9c-2.4-13.1-5.9-24.7-10.5-34.8l4.8,2.7l7.8,4v-49.9h-22.3
			l4.8-3.2l4.6-2.9l-2.9-4.6l-20.1-29.8l-4.8-7.2l-4.3,7.8l-16.1,30c-10.5-5.6-22-9.4-34-12.1l0,0c-2.9-0.5-5.9-1.1-8.8-1.6
			c-0.3,0-0.5,0-0.5,0c-2.9-0.5-5.9-0.8-9.1-1.1c-0.3,0-0.5,0-0.8,0c-2.7-0.3-5.4-0.5-7.8-0.5c-0.8,0-1.3,0-2.1,0
			c-2.9,0-5.9-0.3-8.8-0.3c-74.8,0-135.4,37-135.4,148.8s60.6,202.4,135.4,202.4s135.4-90.6,135.4-202.4
			C1027.5,381.7,1027.5,377.9,1027.2,374.2L1027.2,374.2z M1020.3,267.7v35.7l-11.3-5.9c-6.2-11.8-13.9-21.7-22.8-29.8
			C986.2,267.7,1020.3,267.7,1020.3,267.7z M985.4,225.1l20.1,29.8l-11.3,7.8h-13.9c-3.5-2.7-7.2-5.1-11-7.5L985.4,225.1
			L985.4,225.1z M892.1,582.5c-71.6,0-130-88.5-130-197c0-50.7,12.9-88.5,38.1-112.3c21.7-20.6,52.5-31.1,92-31.1
			c2.9,0,6.2,0,9.1,0.3c0.8,0,1.6,0,2.4,0c2.4,0,4.8,0.3,7,0.5c0.5,0,1.1,0,1.9,0.3c2.9,0.3,5.6,0.5,8.6,1.1c0.3,0,0.8,0.3,1.1,0.3
			c2.4,0.3,4.8,0.8,7.2,1.3c0.5,0,1.1,0.3,1.6,0.3c5.4,1.1,10.7,2.7,15.5,4.6c0.3,0,0.5,0.3,0.8,0.3c2.4,0.8,4.6,1.9,7,2.7
			c0.3,0,0.3,0,0.5,0.3c2.4,1.1,4.8,2.1,7.2,3.5c1.6,0.8,3.2,1.6,4.6,2.7c1.6,0.8,2.9,1.9,4.3,2.7c0.5,0.3,1.1,0.8,1.6,1.1
			c0.8,0.5,1.3,1.1,2.1,1.6c1.1,0.8,2.4,1.9,3.5,2.7s2.1,1.9,3.2,2.7c1.1,0.8,1.9,1.6,2.9,2.4c0.5,0.5,1.1,1.1,1.3,1.6
			c5.6,5.4,10.5,11.5,14.7,18.5c0.5,1.1,1.1,1.9,1.6,2.9c0.3,0.5,0.8,1.1,1.1,1.9c0.8,1.3,1.3,2.7,2.1,3.8c1.3,2.7,2.7,5.6,4,8.6
			l0,0c2.4,5.9,4.6,11.8,6.2,18.5c0,0.3,0.3,0.5,0.3,0.8c0.8,2.9,1.3,5.9,2.1,8.8c0,0.5,0.3,0.8,0.3,1.3c1.3,6.4,2.4,13.4,2.9,20.6
			c0,0.8,0.3,1.9,0.3,2.7c0.3,2.7,0.5,5.4,0.5,8.3c0,1.1,0,2.1,0.3,2.9c0.3,3.8,0.3,7.5,0.3,11.3
			C1022.1,494,963.7,582.5,892.1,582.5L892.1,582.5z M866.9,387.8L866.9,387.8v29.8c0,5.4-4.6,9.9-9.9,9.9c-4.8,0-8.8-3.5-9.7-8.3
			l5.9-9.9h-5.9v-21.4c0-5.4,4.6-9.9,9.9-9.9C862.6,377.9,866.9,382.5,866.9,387.8z M925.1,409h-5.9v-21.2c0-5.4,4.6-9.9,9.9-9.9
			c5.4,0,9.9,4.6,9.9,9.9v29.8c0,5.4-4.6,9.9-9.9,9.9c-4.8,0-8.8-3.5-9.7-8C919.5,419.5,925.1,409,925.1,409z M892.1,298.3
			L892.1,298.3L892.1,298.3c-62.5,0-113.4,58.7-113.4,130.8v7c0,15.3,8.6,28.7,21.2,35.7c5.6,3.2,12.3,4.8,19.3,4.8
			c16.9,0,25.5-9.1,32.4-16.4c5.6-5.9,10.2-10.7,18.5-10.7h44.5c7,0,12.6,5.1,18.8,11c8,7.5,16.9,16.1,31.6,16.1l0,0l0,0
			c22.3,0,40.5-18.2,40.5-40.5v-7C1005.5,357,954.6,298.3,892.1,298.3L892.1,298.3z M870.1,444.4L870.1,444.4
			c-15.3,0-20.4,12.9-31.4,20.6c-0.5,0.3-1.1,0.8-1.6,1.1c-2.1,1.3-4.3,2.7-7,3.5c-3.2,1.1-7,1.9-11.3,1.9
			c-19.6,0-35.1-15.8-35.1-35.1v-7c0-69.4,48.3-125.5,108-125.5c56,0,101.9,49.3,107.5,112.6c0.3,4.3,0.5,8.6,0.5,12.9v7
			c0,19.6-15.8,35.1-35.1,35.1c-23.9,0-30.8-27.1-50.4-27.1L870.1,444.4L870.1,444.4z"/>
	</g>
</g>
</svg>
