<?xml version="1.0" encoding="utf-8"?>
<!-- Generator: Adobe Illustrator 25.0.1, SVG Export Plug-In . SVG Version: 6.00 Build 0)  -->
<svg version="1.1" xmlns="http://www.w3.org/2000/svg" xmlns:xlink="http://www.w3.org/1999/xlink" x="0px" y="0px"
	 viewBox="0 0 464 612" style="enable-background:new 0 0 464 612;" xml:space="preserve">
<style type="text/css">
	.st0{display:none;}
	.st1{display:inline;fill:#001C19;}
	.st2{display:inline;}
	.st3{fill:#CDCDCD;}
	.st4{display:inline;fill:#2F2D2E;}
	.st5{fill:#2F2D2E;}
	.st6{fill:#E6E6E6;}
	.st7{fill:#FFFFFF;}
	.st8{fill:#DAA880;}
	.st9{fill:#FCC192;}
	.st10{fill:#0086B8;}
	.st11{fill:#00AEEF;}
	.st12{fill:#FFFCD5;}
	.st13{fill:#E8E6D1;}
	.st14{fill:#EC008C;}
	.st15{fill:#A20060;}
	.st16{fill:#231F20;}
	.st17{fill:#545456;}
	.st18{display:none;fill:#FFFFFF;}
</style>
<g id="Layer_2" class="st0">
	<rect x="1.2" class="st1" width="461.5" height="612"/>
</g>
<g id="Layer_1" class="st0">
</g>
<g id="Layer_3_3_">
</g>
<g id="Layer_4_3_">
	<path class="st18" d="M201.3,448c-0.1,0.1-0.2,0.1-0.3,0.2C201.1,448.1,201.2,448,201.3,448z M202.4,447.3
		c-0.1,0.1-0.3,0.1-0.4,0.2C202.2,447.4,202.3,447.4,202.4,447.3z M198.9,449.7c-0.1,0.1-0.2,0.1-0.3,0.2
		C198.7,449.8,198.8,449.7,198.9,449.7z M263,419.4C263,419.5,263,419.5,263,419.4C263,419.5,263,419.5,263,419.4z M204.4,446.3
		c0.1-0.1,0.2-0.1,0.4-0.2C204.7,446.2,204.6,446.2,204.4,446.3z M203.2,446.9c0.1-0.1,0.3-0.1,0.4-0.2
		C203.5,446.7,203.3,446.8,203.2,446.9z M127.7,418.6c0.1-1.4,0.2-2.7,0.4-4C127.9,415.9,127.8,417.3,127.7,418.6z M167.1,471.2
		c-0.7,0.1-1.4,0.2-2.1,0.2C165.7,471.3,166.4,471.3,167.1,471.2z M162.4,471.5c0.7,0,1.5,0,2.2-0.1
		C163.8,471.5,163.1,471.5,162.4,471.5z M196.6,451.6c0.1-0.1,0.2-0.2,0.3-0.2C196.8,451.5,196.7,451.5,196.6,451.6z M207.7,445.1
		c-0.1,0-0.3,0.1-0.4,0.1C207.5,445.2,207.6,445.2,207.7,445.1z M167.1,471.2c0.7-0.1,1.3-0.2,2-0.3
		C168.5,471,167.8,471.1,167.1,471.2z M195.6,452.5c0,0,0.1-0.1,0.1-0.1C195.7,452.4,195.7,452.5,195.6,452.5z M197.9,450.5
		c-0.1,0.1-0.2,0.2-0.3,0.3C197.7,450.7,197.8,450.6,197.9,450.5z M268.5,409.3C268.5,409.3,268.5,409.3,268.5,409.3
		C268.5,409.3,268.5,409.3,268.5,409.3z M164.9,334.1c0.9-0.9,1.9-1.9,2.9-2.8C166.9,332.3,165.9,333.2,164.9,334.1z M197.2,311.9
		c11.9-5.2,24.7-8,38.1-8c56,0,101.9,49.3,107.5,112.6c0.3,4.3,0.5,8.6,0.5,12.9v7c0,14.7-8.9,27-21.4,32.3
		c-4.1,1.7-8.5,2.6-13.2,2.6c-23.9,0-30.8-27.1-50.4-27.1h-44.5c-8.9,0-14.5,4.5-19.8,9.9c-0.1,0.1-0.2,0.2-0.4,0.4c0,0,0,0,0,0
		c0,0,0,0,0,0c-3.5,3.6-7,7.5-11.4,10.6c-0.5,0.3-1.1,0.8-1.6,1.1c-2.1,1.3-4.3,2.7-7,3.5c-1.3,0.5-2.8,0.9-4.3,1.2
		c0.7-0.1,1.3-0.3,1.9-0.5c-2.5,0.6-5.3,1-8.5,1c-19.3,0-35.1-15.5-35.1-35.1v-7c0-55.1,30.5-101.9,73.1-118.8
		C199.6,310.9,198.4,311.4,197.2,311.9z M262.8,409h0.2v0.3h5.5c-0.8,1.4-4,7.6-5.2,9.6c0.1-0.1,0.2-0.3,0.2-0.4l-0.6,1.1
		c0.9,4.5,4.9,8,9.7,8c3.3,0,6.4-1.8,8.2-4.4c0.4-0.5,0.7-1.1,0.9-1.7c0.4-0.9,0.6-1.8,0.7-2.8c0-0.3,0.1-0.7,0.1-1v0v-29.8
		c0-5.3-4.5-9.9-9.9-9.9c-5.3,0-9.9,4.5-9.9,9.9V409z M200.8,378c-5.3,0-9.9,4.5-9.9,9.9v21.4v0h5.9l0,0l-5.9,9.9
		c0.9,4.8,4.9,8.3,9.7,8.3c3.3,0,6.4-1.8,8.2-4.4c0.4-0.5,0.7-1.1,0.9-1.7c0.4-0.9,0.6-1.8,0.7-2.8c0-0.3,0.1-0.7,0.1-1v0v-29.8
		C210.5,382.5,206.2,377.9,200.8,378z M263,419.4c0,0,0.1-0.1,0.1-0.2C263.1,419.3,263.1,419.4,263,419.4z M315.3,470.8
		c2.3-0.5,4.5-1.2,6.6-2C319.8,469.6,317.6,470.3,315.3,470.8z M209.2,444.8c-0.2,0-0.3,0.1-0.5,0.1
		C208.8,444.9,209,444.8,209.2,444.8z M263.4,418.9c-0.1,0.1-0.1,0.2-0.2,0.3C263.2,419.1,263.3,419,263.4,418.9z M211.6,444.5
		c0.2,0,0.3,0,0.5,0C212,444.5,211.8,444.5,211.6,444.5z M310,471.5c-0.6,0-1.2,0-1.8,0C308.8,471.5,309.4,471.5,310,471.5z
		 M210.1,444.7c0.2,0,0.4-0.1,0.5-0.1C210.4,444.6,210.3,444.6,210.1,444.7z M312,471.3c0.5-0.1,1-0.1,1.5-0.2
		C313,471.2,312.5,471.2,312,471.3z M313.7,471.1c0.5-0.1,1.1-0.2,1.6-0.3C314.8,470.9,314.2,471,313.7,471.1z M311.8,471.3
		c-0.5,0-1,0.1-1.5,0.1C310.8,471.4,311.3,471.4,311.8,471.3z M125.8,452.5c0-0.1-0.1-0.1-0.1-0.2
		C125.7,452.3,125.7,452.4,125.8,452.5z M150.7,351.3c0.7-1.1,1.5-2.2,2.3-3.2C152.2,349.2,151.4,350.2,150.7,351.3z M155.8,344.4
		c-0.8,1.1-1.7,2.2-2.5,3.3C154.1,346.6,154.9,345.5,155.8,344.4z M127.4,423.8c0.1-1.5,0.1-3,0.2-4.5
		C127.5,420.8,127.5,422.3,127.4,423.8z M150.5,351.6c-0.8,1.1-1.5,2.3-2.3,3.5C149,353.9,149.7,352.7,150.5,351.6z M127.4,424.8
		c0,1.5-0.1,3.1-0.1,4.6C127.3,427.9,127.3,426.3,127.4,424.8z M145.7,359.3c0.7-1.2,1.4-2.4,2.2-3.6
		C147.1,356.9,146.4,358.1,145.7,359.3z M143.3,363.6c-0.6,1.2-1.3,2.5-1.9,3.7C142,366.1,142.6,364.9,143.3,363.6z M141.1,367.9
		c-0.6,1.2-1.1,2.4-1.7,3.6C140,370.3,140.5,369.1,141.1,367.9z M143.6,363c0.7-1.2,1.3-2.5,2-3.7
		C144.9,360.5,144.3,361.8,143.6,363z M135.6,466.1c-0.3-0.2-0.5-0.5-0.8-0.7C135.1,465.7,135.4,465.9,135.6,466.1z M137.4,467.7
		c0.9,0.8,1.9,1.5,2.9,2.1C139.3,469.2,138.4,468.4,137.4,467.7z M371.5,386.1c0,111.8-60.6,202.4-135.4,202.4
		s-135.4-90.6-135.4-202.4s60.6-148.8,135.4-148.8c2.9,0,5.9,0.3,8.8,0.3c0.8,0,1.3,0,2.1,0c2.4,0,5.1,0.2,7.8,0.5
		c0.3,0,0.5,0,0.8,0c3.2,0.3,6.2,0.6,9.1,1.1c0,0,0.2,0,0.5,0c2.9,0.5,5.9,1.1,8.8,1.6c12,2.7,23.5,6.5,34,12.1l16.1-30l4.3-7.8
		l4.8,7.2l20.1,29.8l2.9,4.6l-4.6,2.9l-4.8,3.2h22.3v49.9l-7.8-4l-4.8-2.7c4.6,10.1,8.1,21.7,10.5,34.8c0,0.6,0.3,1.4,0.3,1.9
		c0.5,2.4,1,4.8,1.3,7.5c0,1,0.3,1.8,0.3,2.9c0.3,2.4,0.5,4.8,0.8,7.2c0,1.1,0.3,2.1,0.3,3.2c0.2,2.4,0.5,4.8,0.5,7.5
		c0.3,1.1,0.3,2.1,0.3,3.2C371.1,377.9,371.1,381.7,371.5,386.1z M330,267.7c-0.1,0-0.2,0-0.2,0c8.9,8.1,16.6,18,22.8,29.8l11.3,5.9
		v-0.1v-35.6C363.9,267.7,332.6,267.7,330,267.7z M312.9,255.2c0,0,0.1,0.1,0.1,0.1h0c3.7,2.4,7.4,4.7,10.9,7.4h13.9l11.3-7.8
		L329,225.1L312.9,255.2z M349.1,436.4v-7c0,0,0,0,0,0v-0.3c0-72.1-50.9-130.8-113.4-130.8S122.3,357,122.3,429.1v7c0,0,0,0,0,0
		c0,0,0,0,0,0v0.3c0,22.3,18.2,40.5,40.5,40.5c16.9,0,25.4-9.2,32.4-16.4c5.9-5.9,10.5-10.7,18.5-10.7h44.5c7.3,0,12.6,5.1,18.8,11
		c8,7.5,16.9,16.1,31.6,16.1C330.9,476.9,349.1,458.7,349.1,436.4z M131.3,461.5c1,1.3,2.2,2.5,3.3,3.7
		C133.5,464.1,132.4,462.8,131.3,461.5z M123.8,447.1c0,0.1,0,0.1,0.1,0.2C123.9,447.3,123.8,447.2,123.8,447.1z M122.8,442.2
		c0-0.1-0.1-0.3-0.1-0.4C122.7,441.9,122.7,442,122.8,442.2z M123.2,444.5c0,0.1,0.1,0.3,0.1,0.4
		C123.2,444.7,123.2,444.6,123.2,444.5z M139.2,371.9c-0.6,1.3-1.1,2.6-1.6,3.9C138.1,374.5,138.7,373.2,139.2,371.9z M185.6,317.9
		c1.1-0.7,2.3-1.4,3.5-2C187.9,316.6,186.7,317.2,185.6,317.9z M196.7,312.1c-2.5,1.1-4.9,2.3-7.3,3.6
		C191.8,314.4,194.2,313.2,196.7,312.1z M162,337.2c0.9-1,1.9-2,2.8-3C163.9,335.2,162.9,336.2,162,337.2z M161.5,337.7
		c-1.9,2-3.7,4.1-5.4,6.3C157.9,341.8,159.7,339.7,161.5,337.7z M178.4,322.7c1.1-0.8,2.2-1.6,3.3-2.3
		C180.6,321.1,179.5,321.9,178.4,322.7z M181.8,320.3c1.1-0.7,2.3-1.5,3.4-2.2C184.1,318.8,182.9,319.6,181.8,320.3z M178,323
		c-2.2,1.6-4.3,3.3-6.4,5C173.6,326.3,175.8,324.6,178,323z M128.1,413.8c0.2-1.5,0.3-2.9,0.5-4.4
		C128.4,410.9,128.3,412.4,128.1,413.8z M137.3,376.6c-0.5,1.3-1,2.7-1.5,4C136.2,379.2,136.7,377.9,137.3,376.6z M132.8,389.5
		c0.4-1.4,0.8-2.7,1.2-4.1C133.6,386.8,133.2,388.2,132.8,389.5z M128.8,408.5c0.2-1.5,0.4-2.9,0.7-4.3
		C129.2,405.6,129,407.1,128.8,408.5z M131.6,394c0.3-1.3,0.7-2.6,1-3.8C132.3,391.5,131.9,392.8,131.6,394z M135.7,380.6
		c-0.5,1.3-0.9,2.7-1.4,4C134.8,383.3,135.2,382,135.7,380.6z M130.3,399.8c-0.3,1.4-0.6,2.9-0.8,4.3
		C129.7,402.7,130,401.2,130.3,399.8z M168.2,331c1-0.9,2-1.8,3-2.7C170.2,329.2,169.2,330.1,168.2,331z M131.5,394.7
		c-0.3,1.4-0.7,2.8-1,4.2C130.8,397.5,131.1,396.1,131.5,394.7z"/>
	<path class="st18" d="M414.8,555.8c-1.9,0.8-3.8,1.4-5.6,2C411,557.1,412.9,556.5,414.8,555.8z M21.5,472.8
		c-0.5-0.2-1.1-0.4-1.6-0.6C20.5,472.5,21,472.7,21.5,472.8z M356.9,323.8c0,0.1,0.1,0.2,0.1,0.3C357,324,357,323.9,356.9,323.8
		C356.9,323.8,356.9,323.8,356.9,323.8z M229,83C229,83,228.9,83,229,83L229,83C228.9,83,229,83,229,83C229,83,229,83,229,83z
		 M452.2,543c-29.5,19-60.6,28.1-92,28.1c-18.8,0-37.8-3.5-56.6-9.9c-20.1,17.4-43.2,27.3-68.1,27.3c-54.4,0-101.4-47.9-122.8-117.1
		c-15,6.7-30.6,9.9-46.4,9.9c-14.8,0-29.8-2.7-44.8-8.5c1.1,0.3,2.2,0.5,3.5,0.5c19.6,0,49.9-34.4,60.9-61.7
		c12.1-30,3.2-46.6,17.7-82.8c0.6-1.7,1.4-3,1.9-4.6c2.2-5.4,4.9-10.7,7.8-16.1c-3.8-31.1,11.2-62.5,40.2-78
		c9.4-8.1,21.5-12.9,34.6-12.9c0.2,0,0.2,0,0.5,0l30.6-128.1c1.1-5.9,5.1-12.9,16.9-12.9c8.1,0,14,4.3,16.4,12.3V89l31.2,135.8
		c9.7,6.7,16.4,13.4,29.8,18.2c8.8,3.2,20.4,5.1,31.1,5.1c14.7,0,27.9-3.5,30.8-11c-5.6,15.6-14.7,27.9-26.5,37.3
		c18.8,21.5,28.7,48.3,28.7,79.4c0-6.2-4.6-12.3-11.8-17.7c3.2,14.7,5.1,31.3,5.1,50.1c0,26.1-3.2,50.7-9.1,73.5
		c19.6,18.2,41,31.6,57.1,31.6c3.8,0,7.3-0.8,10.2-2.4c-18.8,9.9-38.1,16.4-57.4,19.3c22,21.2,49.6,37.8,68.4,37.8
		C444.7,546,448.7,545.2,452.2,543z M366.3,470.6c-1-0.8-2-1.7-3-2.5c-0.4-0.3-0.7-0.6-1.1-0.9c-0.7-0.6-1.3-1.2-2-1.8
		c-4,14-9.1,27.4-15,39.7c1.6,0,3.1,0,4.7-0.1c0.6,0,1.1,0,1.7-0.1c1,0,2.1-0.1,3.1-0.2c0.7,0,1.5-0.1,2.2-0.1
		c1.2-0.1,2.4-0.2,3.7-0.3c0.8-0.1,1.5-0.2,2.3-0.2c0.9-0.1,1.8-0.2,2.7-0.3c0.6-0.1,1.2-0.1,1.7-0.2c7-1,14-2.4,21-4.3l0.1,0.2
		c5.3-1.6,10.7-3.2,16.4-5.1c-0.2-0.1-0.3-0.1-0.5-0.2c0.1,0,0.2-0.1,0.4-0.1c-11.4-3.6-23.6-11.2-35.6-21c-0.3-0.2-0.6-0.5-0.8-0.7
		l0,0c-0.1-0.1-0.1-0.1-0.2-0.2L368,472C367.4,471.5,366.8,471.1,366.3,470.6z M286.1,232.4C286.1,232.4,286.1,232.4,286.1,232.4
		l6.3,27.9l0.3,0.8v0.5c0,0.1,0,0.3,0,0.4c-0.2,3.1-1.1,6.7-4,10.4c-2.9,3.7-7.9,7.3-15.8,10.4c-3.2,1.3-6.9,2.4-10.7,3.2
		c0.2,0,0.5,0.1,0.7,0.1c-0.3,0.1-0.5,0.1-0.8,0.2c4.3,0.8,8.6,1.3,12.9,1.6c4.3,0.3,8.3,0.5,12.3,0.5c8.8,0,17.4-0.8,25.2-2.7
		l0.5-0.4c0,0,0.1,0,0.1,0l-0.6,0.6c22-4.9,39.2-16.7,50.4-34.4c-0.2,0-0.3,0.1-0.5,0.1c0.1-0.1,0.2-0.3,0.3-0.4
		c-6.7,1.6-13.4,1.9-17.7,1.9c-11.8,0-23.6-1.9-33-5.4c-10.7-3.7-17.4-9.1-24.1-13.9c0,0,0,0,0,0c-0.3-0.3-0.7-0.5-1.1-0.8
		c-0.2-0.2-0.5-0.5-0.8-0.8L286.1,232.4z M216,124.4c9.4,8.3,21.4,16.6,34.3,23.3c4,2.1,7.8,4,11.8,5.6l0-0.2c0,0,0.1,0,0.1,0.1
		L247.4,90c0,0,0,0,0,0c-1.9-6.5-5.9-8.6-11.3-8.6c0,0,0,0,0,0c-1.1,0-1.9,0-2.7,0c-0.5,0-1.1,0.1-1.5,0.3c-2.3,0.5-3.9,1.6-5.1,3.1
		c-1.2,1.4-2,3.1-2.5,5.2L216,124.4z M209.2,154.2l-4.1,17.1c0.5,0.5,1.1,1.3,1.6,1.9c9.8,9.9,23.8,19.8,39.1,27.8
		c4.1,2.1,8,4,12,5.7c0,0.1,0,0.1,0,0.2c6.4,2.7,12.6,5.1,18.5,6.7l-0.2-0.6c0.1,0,0.1,0,0.2,0l-12.6-53.3
		c-5.3-2.1-10.7-4.5-15.8-7.2c-12.3-6.5-23.8-14-33.2-22C214.7,130.5,211.8,143.1,209.2,154.2z M194,216.9
		c6.7,12.6,25.5,28.4,48,40.2c1,0.5,2,1,2.9,1.5c8.6,4.4,17.2,7.8,25.1,10c0,0,0,0,0,0c4.6,1.4,8.8,2.2,12.6,2.7c0,0,0,0,0,0
		c0.9-0.8,1.7-1.7,2.4-2.7l0,0c0,0,0,0,0,0c0.4-0.6,0.8-1.2,1.1-1.9c0.2,0,0.2-0.3,0.2-0.3c0.3-0.8,0.5-1.3,0.8-2.1V264
		c0-0.8,0.3-1.6,0.3-2.4l-9.9-42.4c-0.3-0.1-0.5-0.1-0.8-0.2c-10.5-2.7-22.1-7.4-33.6-13.5c-15.8-8-29.7-18.2-39.9-28.1L194,216.9z
		 M183.8,260.3v1.3c0,14.5,26,22.3,51.7,22.3c13.1,0,26.3-2.1,36.2-5.9c0-0.1,0-0.2-0.1-0.2c0.1,0,0.1,0,0.2-0.1h0.2
		c1.3-0.5,2.7-1.1,3.8-1.6h0.3c-0.1-0.1-0.2-0.1-0.3-0.1c0.2-0.1,0.4-0.2,0.5-0.3c-11-2.4-23.8-7.2-36.7-13.9
		c-20.9-11-38.4-24.9-47.2-37.5l-0.8,3.4L183.8,260.3z M140.4,269.7v1.1c0,0.2-2.4,17.4,9.9,31.6c11.8,13.9,33.2,20.9,63.5,20.9
		c19.8,0,32.4-3.7,44.5-7.2c11-3.2,22.8-6.7,38.9-6.7c16.6,0,37.5,4.5,54.7,12.3c1.9,0.8,3.5,1.6,5.1,2.4c5.4,2.9,10.2,5.9,14.2,8.8
		c-3.5-21.2-12.3-40-26-55.5c0,0,0,0,0,0c-0.1-0.1-0.1-0.1-0.2-0.2c-3.2,2.2-6.6,4.2-10.2,6c-0.1-0.1-0.2-0.2-0.2-0.4
		c-13.7,6.7-29.5,10.2-47.2,10.2c-12.8,0-26.2-1.6-40.7-5.1c-1.9,0-3.5,0.3-5.4,0.3c-1.8,0-3.7,0-5.6,0c-14.2,0-27.3-2.1-37.5-5.9
		c-16.3-6.1-19.8-15-19.8-21.4v-1.4l0.3-0.5l8.6-36.5c0,0-0.1,0-0.1,0l0.1-0.5C161.3,222.5,140.4,243.7,140.4,269.7z M190.3,418.5
		c0,5.3,4.6,9.9,9.9,9.9s9.9-4.5,9.9-9.9v-0.1v-29.5v-0.2c0-3-1.3-5.7-3.5-7.5c-1.7-1.4-4-2.3-6.6-2.2c-4.9,0-8.9,3.5-9.7,8.3l0,0
		c0,0,0,0,0,0.1l5.8,9.8h-5.8v0.1V418.5L190.3,418.5z M118.1,299.3c0.1-0.1,0.1-0.2,0.2-0.4c0,0.2,0,0.4,0,0.6
		c4.8-9.1,10.2-17.2,16.6-24.1c-0.1-3.1,0.1-5.2,0.2-5.2c0-9.1,2.1-17.4,6.2-24.9c-0.1,0.1-0.2,0.2-0.3,0.3c0.1-0.1,0.1-0.3,0.2-0.4
		c-9.1,8.3-16,19.1-19.8,31.4C119,284.1,117.9,291.9,118.1,299.3z M113.9,398.6c0-0.1,0.1-0.2,0.1-0.4c0,0.1,0.1,0.1,0.1,0.2
		c0.7-3.2,1.8-6.4,3.1-9.7c3.5-8.5,8.7-17.2,14.5-24.4c0,0,0.1-0.1,0.1-0.1c0.4-0.5,0.8-1,1.3-1.5c0.3-0.3,0.6-0.7,0.9-1
		c0.3-0.3,0.6-0.7,0.9-1c0.4-0.4,0.8-0.9,1.2-1.3c0.5-0.6,1.1-1.1,1.6-1.6c0.1-0.1,0.3-0.3,0.4-0.4c0.7-0.7,1.4-1.3,2.1-2
		c8.6-7.8,16.1-11.5,23.6-15c7-3.2,13.9-6.7,22.3-13.7c0,0,0,0,0,0c0.1-0.1,0.2-0.1,0.2-0.2c-36.7-6.8-47.5-27.4-50.4-41.6
		c-0.1,0.2-0.2,0.3-0.4,0.5c0-0.2-0.1-0.4-0.1-0.6c-16.1,19.3-26.5,39.1-30.6,58.4C101.3,363.2,104.2,382,113.9,398.6z M111.3,466.1
		c-7-24.7-11-51.5-11-79.9c0-2.1,0-4.6,0-6.7c-0.5-2.1-0.8-4-1.3-6.2c0,0,0,0,0,0c0,0,0,0,0,0c0,0.3,0,0.8,0,1.1
		c-1,11.8-2.1,23.9-8,38.9c-9.1,22.5-30,48.8-49.3,59.8c8.3,1.9,16.7,2.7,24.7,2.7c0,0,0,0,0.1,0c0,0,0,0,0,0
		C82,475.8,97.1,472.6,111.3,466.1z M226.2,551.1c0-2.1-1.6-4-3.8-4.1c-2.2,0-3.8,1.9-3.8,3.8v0.4v11c0,1.9,1.6,3.8,3.8,3.8
		c2.1,0,3.8-1.6,3.8-3.8v-10.7V551.1z M252.8,551.5c-0.1-0.8-0.3-1.5-0.6-2c0,0,0,0,0,0c-0.6-1.4-1.9-2.5-3.5-2.5
		c-2.2,0-3.8,1.9-3.8,3.8v11c0,1.2,0.5,2.2,1.3,2.9c0.7,0.8,1.7,1.3,2.8,1.3c2.2,0,3.8-1.6,3.8-3.8V551.5z M282.2,388.7
		c0-4.1-2.6-7.7-6.3-9.1c-1.2-0.4-2.4-0.7-3.8-0.6c-4.9,0-8.9,3.4-9.7,8l0,0c0,0,0,0,0,0.1l5.8,10.1h-5.8v0.1v21.1v0.1
		c0,5.3,4.6,9.9,9.9,9.9s9.9-4.5,9.9-9.9v-0.1v-29.5V388.7z M428.6,550c-19.8-5.1-44.2-21.4-63.5-40.7c-0.1,0-0.3,0-0.4,0
		c0,0,0,0,0,0c-0.1,0-0.1,0-0.2,0c-0.1,0-0.3,0-0.4,0c-6.2,0.6-12.7,1-19.2,1c-0.8,0-1.6,0-2.4,0c-9.6,18.2-21.2,34-34.3,46.6
		c17.2,5.7,34.6,8.6,52,8.6c0.1,0,0.1,0,0.2,0c0.1,0,0.2,0,0.2,0c7.1,0,14.2-0.5,21.2-1.5c8.6-1.2,17.1-3.1,25.4-5.7l0,0
		C414.4,556.2,421.6,553.3,428.6,550z M251.2,548.2c0,0,0.1,0.1,0.1,0.1C251.3,548.3,251.2,548.2,251.2,548.2z M249,547.4
		c0.2,0,0.4,0,0.6,0.1C249.4,547.4,249.2,547.4,249,547.4z M250.5,547.7c0.1,0.1,0.3,0.1,0.4,0.2
		C250.8,547.9,250.6,547.8,250.5,547.7z M245.5,563.5c0,0,0-0.1,0-0.1C245.5,563.5,245.5,563.5,245.5,563.5z M245.2,562.2
		c0,0.2,0,0.5,0.1,0.7C245.3,562.7,245.2,562.4,245.2,562.2z M257.9,206.8c0,0,0,0.1,0,0.1c0.9,0.4,1.8,0.7,2.8,1.1
		C259.8,207.6,258.8,207.2,257.9,206.8z M249.8,547.5c0.1,0,0.3,0.1,0.4,0.1C250.1,547.6,250,547.5,249.8,547.5z"/>
	<path class="st7" d="M263.8,420.4c0,0.2,0.1,0.3,0.1,0.5C263.8,420.7,263.8,420.5,263.8,420.4z M344.7,455.9
		c-0.1,0.1-0.1,0.3-0.2,0.4C344.5,456.2,344.6,456.1,344.7,455.9z M345.3,454.6c0.1-0.2,0.2-0.3,0.2-0.5
		C345.5,454.3,345.4,454.4,345.3,454.6z M342.4,459.7c0.1-0.1,0.1-0.2,0.2-0.3C342.5,459.5,342.5,459.6,342.4,459.7z M341.5,461
		c-0.1,0.1-0.1,0.2-0.2,0.2C341.3,461.2,341.4,461.1,341.5,461z M347.5,449.1c0.1-0.3,0.2-0.6,0.3-0.9
		C347.7,448.5,347.6,448.8,347.5,449.1z M346.4,452.2c-0.1,0.2-0.2,0.4-0.3,0.6C346.2,452.6,346.3,452.4,346.4,452.2z M346.9,451
		c0.1-0.2,0.2-0.5,0.3-0.7C347,450.5,347,450.7,346.9,451z M340.2,462.6c0,0-0.1,0.1-0.1,0.2C340.1,462.7,340.2,462.7,340.2,462.6z
		 M290.2,36.8c-1.2-0.4-2.4-0.7-3.7-1C287.8,36.1,289,36.5,290.2,36.8L290.2,36.8z M297.4,39.4c-1-0.5-1.8-1-2.9-1.3
		c-0.5-0.2-0.8-0.2-1.3-0.5c-1.1-0.3-1.9-0.5-2.7-0.8c-0.3,0-0.3,0-0.3,0c2.6,0.8,5.2,1.8,7.7,2.9C297.7,39.4,297.7,39.4,297.4,39.4
		z M348.3,446.2c-0.1,0.3-0.1,0.6-0.2,0.9C348.1,446.9,348.2,446.6,348.3,446.2z M313.9,88.2c0-0.8,0-1.6-0.1-2.4
		c-1.2-12.1-10.7-26.2-20-37.3l-5,10.7l-2.5,5.4l27.6,25.5C313.9,89.3,313.9,88.7,313.9,88.2z M392.8,352.6
		c0.2,13.6-9,25.4-21.3,29.2c0,1.3,0,2.7,0,4.3c0,111.8-60.6,202.4-135.4,202.4c-71.8,0-130.8-83.9-135.1-189.8
		c-12.3-2.4-21.7-12.9-21.7-25.8c0-14.5,11.8-26.3,26.3-26.3c0,0,1.9-5.4,7-10.5c12.1-90.1,42.1-224.4,59.5-260.8
		c17.7-36.7,71.8-46.1,103.7-46.1c31.9,0,57.9,26,57.9,58.2s-26,58.2-58.2,58.2c0,0-7,5.4-3.2,9.7c3.8,4.3-0.3,17.4-6.2,18.8
		c-5.9,1.6,31.6,15,36.7,55.2c2.7,11.5,43.4,27.3,51.2,90.9l8,0.8C378.9,321,392.8,335.7,392.8,352.6z M260.3,173.8
		c-0.3-0.2-0.7-0.4-1.1-0.6c-0.7-0.4-1.4-0.7-2.2-1.1c-0.5-0.2-1-0.5-1.5-0.7c0,0,0,0,0,0.1c-0.1,0-0.1,0-0.1-0.1
		c-2.4,7.2-2.1,11.5,0.3,16.6c2.4,5.4,20.9,23.9,22.8,36.2c1.9,12.3,16.4,31.1,16.4,31.1s37.5,30.3,40.7,63.5
		c4.3,0.3,8.5,0.5,13.1,0.8c0,0,0,0,0,0c0,0,0.1,0,0.1,0c-5.6-43.2-26.8-63-39.7-74.8c-5.9-5.6-10.2-9.7-11.5-14.5v-0.5
		c-3.2-26.3-21.7-40.2-30.6-46.9C262.7,179.7,259.8,177.5,260.3,173.8z M267.5,164.9c1.3-3,1.1-5.7,0.8-6.2
		c-0.3-0.8-0.8-1.4-1.1-1.9c0,0,0,0,0,0c-0.7-0.2-1.5-0.5-2.3-0.8c-1.4-0.6-2.9-1.3-4.7-2.1c0,6.2,3.8,7.5,3.8,7.5s0.5,6.5-3.2,8.6
		c0.3,0.2,0.8,0.5,1.1,0.5c0,0,0,0,0,0c0,0,0,0,0,0c0.8-0.8,1.9-1.3,2.9-1.6c0,0,0,0,0,0c0.2,0,0.8-0.5,1.5-1.6
		C266.7,166.7,267.1,165.9,267.5,164.9C267.5,164.9,267.5,164.9,267.5,164.9z M272.4,141.1c0,0-0.2,0-0.5,0.1h0c0,0,0,0,0,0
		c-0.2,0-0.6,0.1-1,0.2c0,0-0.1,0-0.1,0c-0.2,0-0.4,0.1-0.6,0.2c0,0-0.1,0-0.1,0c-0.2,0.1-0.4,0.1-0.7,0.2c0,0-0.1,0-0.1,0
		c-0.2,0.1-0.4,0.2-0.7,0.2c0,0-0.1,0-0.1,0c-0.2,0.1-0.5,0.2-0.7,0.3c-0.1,0-0.1,0-0.2,0.1c-0.2,0.1-0.5,0.2-0.7,0.4
		c-0.1,0-0.1,0.1-0.2,0.1c-0.3,0.1-0.5,0.3-0.8,0.4c0,0-0.1,0-0.1,0.1c-0.2,0.2-0.5,0.3-0.7,0.5c0,0-0.1,0.1-0.1,0.1
		c-0.3,0.2-0.5,0.4-0.7,0.6c-0.1,0-0.1,0.1-0.2,0.1c-0.2,0.2-0.5,0.4-0.7,0.7c0,0-0.1,0.1-0.1,0.1c-0.2,0.2-0.5,0.5-0.7,0.8
		c0,0,0,0,0,0.1c-0.2,0.3-0.4,0.6-0.6,0.8c0,0-0.1,0.1-0.1,0.1c-0.2,0.3-0.3,0.6-0.5,0.9c0,0.1-0.1,0.1-0.1,0.2
		c-0.2,0.3-0.3,0.7-0.4,1.1c0,0.1,0,0.1-0.1,0.2c-0.1,0.4-0.2,0.8-0.3,1.2c0,0,0,0,0,0l0,0c0,0,0,0,0,0c0,0,0,0,0,0
		c0.6,0.2,1.1,0.3,1.6,0.5c0.1,0,0.2,0,0.3,0.1c1.3,0.3,2.5,0.5,3.3,0.7c0,0,0,0,0,0c0.1,0,0.2,0,0.3,0.1c0-0.3,0-0.8,0-1.1
		C266.7,145.9,271.5,142.1,272.4,141.1z M216,78.5l-0.1,0.1l37.5,4.6l0.6,2.8l6.6,33.9l0.2-0.4l0.1,0.7l15.8-34.4l37,4.5
		c-0.3,15.3-6,33.5-16.3,44.7c0.4-0.2,0.9-0.4,1.3-0.6c-0.4,0.4-0.7,0.8-1.1,1.2c18.2-8.3,31.1-26.8,31.1-48
		c0-8.7-2.1-16.9-5.9-24.1c-7.7-15.6-23-26.7-41.1-28.7c1.6,0.2,3.2,0.5,4.9,0.9c-1.7-0.4-3.4-0.7-5.1-0.9c0,0,0,0-0.1-0.1
		c-1.8-0.2-3.7-0.3-5.6-0.3c-0.1,0-0.1,0-0.2,0c2,0,3.9,0.1,5.8,0.4c0.2,0.2,0.4,0.3,0.6,0.5c-0.1,0-0.2,0-0.3-0.1
		c1.2,1.2,2.5,2.5,3.9,3.9l-16.5,9.3l-13.8-12.8c-2.3,0.3-4.6,0.6-6.9,0.9c-1.4,0.2-2.8,0.4-4.2,0.6l4.6,22.7l-33,18.5L216,78.5z
		 M126.1,397.9c-0.5,2.1-1.1,4.7-1.5,6.7c-1.3,8.3-2.1,16.9-2.1,25.5v7c0,22.3,18.2,40.5,40.5,40.5c0,0,0.1,0,0.1,0c0,0,0,0,0,0
		c0,0,0.1,0,0.1,0c16.9,0,25.4-9.2,32.4-16.4c5.9-5.9,10.5-10.7,18.4-10.7c7.4,0,13.6,3.2,17.9,9.4l4.3,6.4l0.1-0.1l0.1,0.1l4.3-6.4
		c4.6-6.5,10.1-9.4,17.9-9.4c7.3,0,12.5,5.1,18.7,11c8,7.5,16.9,16.1,31.6,16.1c0,0,0.1,0,0.1,0c0,0,0.1,0,0.1,0
		c22.3,0,40.5-18.2,40.5-40.5v-7c0-14.2-1.9-28.4-5.9-41.8c-0.6-1.9-1.4-3.8-1.9-5.4c-0.1,0-0.1,0-0.2,0l-5.3-0.6c0,0,0,0.1,0,0.1
		c0,0,0,0,0,0c5.1,14.7,8,30.5,8,47.4v6.9c0,19.3-15.5,35.1-35.1,35.1c-9.3,0-16-4.1-21.9-9.1c-6.2-5.6-8.9-8.3-10.8-10
		c-0.1,0-0.1-0.1-0.2-0.1c0,0,0,0,0,0c-5.1-4.5-10.5-8-17.6-8c-7.9,0-13.9,2.7-18.4,7.1c-1.5,1.4-2.8,3-4,4.7
		c-4.9-7.2-12.6-11.8-22.3-11.8c-10.1,0-15.8,5.8-21.8,12c-0.9,1-1.9,2-2.9,3c0.9-0.9,1.7-1.8,2.5-2.6c-6.9,7.2-14.1,14.8-28.8,14.8
		c-19.3,0-35.1-15.5-35.1-35.1v-7c0-8.5,0.9-16.7,2.3-24.8c0.1-0.2,0.1-0.3,0.1-0.5c0,0.2-0.1,0.3-0.1,0.5c0.5-2.8,1.1-5.6,1.7-8.4
		l-6,1.1c0,0,0,0,0,0L126.1,397.9z M130.8,403c0.3-1.3,0.6-2.6,0.8-3.8c0.1-0.4,0.1-0.8,0.2-1.2C131.5,399.6,131.1,401.3,130.8,403z
		 M207.3,381C207.3,381,207.3,381,207.3,381c-0.9-0.8-1.9-1.4-3.1-1.8c-0.3,0-0.5,0-0.8,0h-4.3c-0.3,0-0.7,0-1,0
		c-4,1.4-6.8,5-6.8,9.4v29.5c0,0,0,0,0,0v0.3c0,5.3,4.5,9.9,9.9,9.9c4.9,0,8.9-3.5,9.7-8.3l0-0.1c0-0.1,0-0.1,0-0.2l-5.7-9.6h6
		v-21.2C211.2,385.6,209.6,382.8,207.3,381z M267,380.5c-2.4,1.8-4,4.8-4,8V418c0,5.3,4.5,9.9,9.9,9.9c0.1,0,0.1,0,0.2,0
		c0.1,0,0.1,0,0.2,0c4.9,0,8.9-3.5,9.7-8.3l-5.6-9.9h5.9v-21.2c0-3.2-1.6-5.9-4-7.8c0,0,0,0,0,0l0.7,0c-0.3,0-0.5,0-0.8,0l-11.6-0.2
		 M338.8,464.3C338.8,464.2,338.9,464.2,338.8,464.3C338.9,464.2,338.8,464.2,338.8,464.3z M349.3,437.1c0,0.7,0,1.4-0.1,2.1
		C349.3,438.5,349.3,437.8,349.3,437.1z M337.5,465.6C337.5,465.6,337.5,465.7,337.5,465.6C337.5,465.7,337.5,465.6,337.5,465.6z
		 M343.5,458c0.1-0.1,0.1-0.3,0.2-0.4C343.6,457.8,343.5,457.9,343.5,458z M204.6,379.6c-0.1,0-0.2-0.1-0.2-0.1
		C204.5,379.5,204.5,379.6,204.6,379.6z M266.3,424.9C266.3,424.9,266.3,424.8,266.3,424.9C266.3,424.8,266.3,424.9,266.3,424.9z
		 M205.3,379.9c0.1,0,0.1,0.1,0.2,0.1C205.5,379.9,205.4,379.9,205.3,379.9z M348.7,444.3c-0.1,0.3-0.1,0.6-0.2,0.9
		C348.6,444.9,348.6,444.6,348.7,444.3z M344.2,426.5c0-0.4,0-0.9,0-1.3C344.2,425.7,344.2,426.1,344.2,426.5z M236.4,456.5
		c0.3-0.4,0.6-0.9,0.9-1.3C237,455.6,236.7,456.1,236.4,456.5z M263.5,419.3c0,0.2,0.1,0.4,0.1,0.6
		C263.6,419.7,263.6,419.5,263.5,419.3z M264.5,422.3c0,0.1,0.1,0.2,0.1,0.3C264.6,422.5,264.5,422.4,264.5,422.3z M264.2,421.8
		c-0.1-0.1-0.1-0.2-0.1-0.4C264.1,421.5,264.2,421.6,264.2,421.8z M263.4,418c0,0.3,0,0.7,0.1,1C263.4,418.7,263.4,418.3,263.4,418z
		 M265.1,423.4c0-0.1-0.1-0.1-0.1-0.2C265,423.3,265.1,423.4,265.1,423.4z M265.7,424.2c0,0-0.1-0.1-0.1-0.1
		C265.6,424.1,265.6,424.1,265.7,424.2z M281.7,457.7c1.8,1.7,3.6,3.4,5.6,5.1C285.4,461.1,283.5,459.4,281.7,457.7z M341.6,402.3
		c-0.2-0.9-0.4-1.9-0.6-2.8C341.2,400.4,341.4,401.4,341.6,402.3z M344.1,423.4c0-0.6-0.1-1.1-0.1-1.7
		C344,422.3,344.1,422.8,344.1,423.4z M349.2,439.9c0,0.4-0.1,0.9-0.1,1.3C349.2,440.8,349.2,440.3,349.2,439.9z M349,442.1
		c0,0.4-0.1,0.7-0.1,1.1C348.9,442.9,349,442.5,349,442.1z M342.7,408.6c0.1,0.8,0.2,1.7,0.4,2.6
		C342.9,410.3,342.8,409.5,342.7,408.6z M343.1,411.7c0.1,0.8,0.2,1.7,0.3,2.5C343.3,413.4,343.2,412.6,343.1,411.7z M343.5,415.1
		c0.1,0.7,0.1,1.4,0.2,2.1C343.6,416.5,343.6,415.8,343.5,415.1z M343.9,420.3c0-0.6-0.1-1.3-0.1-1.9
		C343.8,419.1,343.9,419.7,343.9,420.3z M342.6,408.2c-0.1-0.9-0.3-1.8-0.4-2.8C342.3,406.4,342.5,407.3,342.6,408.2z M336.3,382.4
		c1.9,5.5,3.5,11.1,4.7,16.9C339.8,393.6,338.2,387.9,336.3,382.4z M342.2,405.2c-0.2-1-0.3-1.9-0.5-2.8
		C341.8,403.3,342,404.3,342.2,405.2z"/>
</g>
</svg>
