<?xml version="1.0" encoding="utf-8"?>
<!-- Generator: Adobe Illustrator 25.0.1, SVG Export Plug-In . SVG Version: 6.00 Build 0)  -->
<svg version="1.1" id="Layer_1" xmlns="http://www.w3.org/2000/svg" xmlns:xlink="http://www.w3.org/1999/xlink" x="0px" y="0px"
	 viewBox="0 0 91.6 91.6" style="enable-background:new 0 0 91.6 91.6;" xml:space="preserve">
<style type="text/css">
	.st0{fill:#ECE94A;}
	.st1{fill:#F6AFCE;}
	.st2{fill:#F99F1E;}
	.st3{fill:none;stroke:#FFFFFF;stroke-miterlimit:10;}
</style>
<g>
	<path class="st0" d="M40.3,52C26.4,38.1,29.7,10.6,29.7,10.6c0.6-5.5-2.8-7.7-7.6-5.1c0,0-0.9,0.5-5,4.6c-18,18-18,47.1,0,65.1
		s47.1,18,65.1,0c4.1-4.1,4.6-5,4.6-5c2.7-4.8,0.4-8.2-5.1-7.6C81.7,62.6,54.2,65.9,40.3,52z"/>
	<path class="st0" d="M47.1,5.2c1.5-3,3.9-3,5.3,0c1.5,3,5.3,5.8,8.6,6.3c3.3,0.5,4,2.8,1.6,5.1s-3.9,6.9-3.3,10.1s-1.4,4.7-4.3,3.1
		c-2.9-1.5-7.7-1.5-10.7,0c-2.9,1.5-4.9,0.1-4.3-3.1s-0.9-7.8-3.3-10.1c-2.4-2.3-1.6-4.6,1.6-5.1C41.8,11,45.7,8.2,47.1,5.2z"/>
	<path class="st0" d="M68.6,38.7c0.9-1.4,2.1-1.3,2.7,0.3c0.6,1.6,2.4,3.2,4.1,3.6c1.6,0.4,1.9,1.6,0.6,2.6c-1.3,1.1-2.3,3.3-2.2,5
		c0.1,1.7-0.9,2.3-2.3,1.4c-1.4-0.9-3.8-1.1-5.4-0.5c-1.6,0.6-2.5-0.2-2-1.8c0.4-1.6-0.1-4-1.2-5.3s-0.6-2.4,1.1-2.5
		C65.6,41.4,67.7,40.1,68.6,38.7z"/>
	<path d="M32.7,67.5c-1.1,0-1.6,0.8-1.2,1.8c0,0,2.7,6.1,7.1,6.1s7.1-6.1,7.1-6.1c0.4-1-0.1-1.8-1.2-1.8H32.7z"/>
	<ellipse cx="49.8" cy="56.2" rx="2.5" ry="4.2"/>
	<ellipse cx="27.2" cy="56.2" rx="2.5" ry="4.2"/>
	<ellipse class="st1" cx="56.5" cy="73.5" rx="2.7" ry="2.1"/>
	<ellipse class="st1" cx="21.9" cy="73.5" rx="2.7" ry="2.1"/>
</g>
</svg>
